<?xml version="1.0" encoding="UTF-8"?><svg version="1.1" width="302px" height="125px" viewBox="0 0 302.0 125.0" xmlns="http://www.w3.org/2000/svg" xmlns:xlink="http://www.w3.org/1999/xlink"><defs><clipPath id="i0"><path d="M1440,0 L1440,3722 L0,3722 L0,0 L1440,0 Z"></path></clipPath><filter id="i1" x="-21.5231788%" y="-50.8064516%" filterUnits="userSpaceOnUse" width="125.165563%" height="161.290323%"><feGaussianBlur stdDeviation="9" in="SourceAlpha" result="i2"></feGaussianBlur><feOffset dx="0" dy="2" in="i2" result="i3"></feOffset><feColorMatrix values="0 0 0 0.0 0 0 0 0 0.0 0 0 0 0 0.0 0 0 0 0 0.08093859265734266 0" type="matrix" in="i3"></feColorMatrix></filter><clipPath id="i4"><path d="M213,0 C232.329966,-3.55085719e-15 248,15.6700338 248,35 C248,54.3299662 232.329966,70 213,70 L35,70 C15.6700338,70 2.36723813e-15,54.3299662 0,35 C-2.36723813e-15,15.6700338 15.6700338,3.55085719e-15 35,0 L213,0 Z"></path></clipPath><clipPath id="i5"><path d="M21.9356778,0 C27.4850215,0 32.0004008,4.647225 32,10.3599375 C32,12.184425 30.6606552,13.692525 28.9409879,13.8975375 L28.9409879,17.6950125 L29.9985973,17.0812125 C30.0050095,17.0775 30.012624,17.0775 30.0194369,17.0742 C30.0430819,17.0622375 30.0683298,17.05605 30.0939786,17.0490375 C30.1212303,17.0416125 30.1472798,17.0333625 30.1749324,17.032125 C30.1821461,17.0317125 30.1881575,17.028 30.1953712,17.028 C30.2122032,17.028 30.2266306,17.0358375 30.2430618,17.0379 C30.2719166,17.0416125 30.2999699,17.045325 30.3272217,17.055225 C30.3512674,17.0638875 30.372107,17.076675 30.3937481,17.0894625 C30.41579,17.103075 30.4374311,17.1158625 30.4570684,17.1336 C30.4783088,17.152575 30.4943392,17.17485 30.5111712,17.19795 C30.521591,17.211975 30.5356177,17.2214625 30.5444344,17.23755 C30.5480413,17.2445625 30.5480413,17.2519875 30.5512474,17.259 C30.5632702,17.28375 30.5692816,17.31015 30.5760946,17.337375 C30.5833083,17.3646 30.590522,17.3905875 30.592125,17.418225 L30.5965334,17.4405 L30.5965334,32.5875 C30.5965334,32.8156125 30.417393,33 30.195772,33 L1.80502956,33 C1.58340848,33 1.40426811,32.8156125 1.40426811,32.5875 L1.40426811,17.439675 C1.40426811,17.4318375 1.40827572,17.424825 1.40867649,17.4169875 C1.41027953,17.3897625 1.41749324,17.3641875 1.42430618,17.337375 C1.43151989,17.31015 1.43753131,17.2833375 1.44955415,17.258175 C1.45276024,17.2511625 1.45276024,17.243325 1.4563671,17.236725 C1.46478309,17.2214625 1.47880974,17.211975 1.48882877,17.1983625 C1.50606152,17.1744375 1.5228935,17.15175 1.54453462,17.1323625 C1.5633704,17.11545 1.58380924,17.103075 1.60504959,17.0902875 C1.627893,17.076675 1.65033564,17.063475 1.67558361,17.0544 C1.70123234,17.045325 1.72648031,17.042025 1.75333133,17.0383125 C1.77096483,17.0358375 1.78699529,17.0275875 1.80543032,17.0275875 C1.81384631,17.0275875 1.82065925,17.032125 1.82867448,17.0325375 C1.85432321,17.0341875 1.87876966,17.0416125 1.90401763,17.0482125 C1.93126941,17.0556375 1.95731891,17.061825 1.98216612,17.0746125 C1.9885783,17.0779125 1.99619277,17.0779125 2.00260495,17.081625 L3.05941288,17.69625 L3.05941288,13.8975375 C1.33974552,13.692525 0,12.184425 0,10.3599375 C0,4.6476375 4.51497846,0 10.064723,0 Z M24.5109708,17.9136375 L21.8675483,19.449375 C21.7457169,19.520325 21.5966336,19.520325 21.4735998,19.449375 L18.8329827,17.9136375 L16.1907624,19.449375 C16.1298467,19.48485 16.062118,19.5025875 15.9939886,19.5025875 C15.9258591,19.5025875 15.8581304,19.48485 15.7968139,19.449375 L13.1553953,17.9136375 L10.5139766,19.449375 C10.3913436,19.520325 10.2426611,19.520325 10.1196273,19.449375 L7.4782086,17.9136375 L4.83799219,19.449375 C4.71535918,19.520325 4.56587516,19.5207375 4.44364292,19.4489625 L2.205791,18.1471125 L2.205791,32.175 L29.7950105,32.175 L29.7950105,18.1462875 L27.5503457,19.449375 C27.4285142,19.520325 27.2790302,19.520325 27.1567979,19.449375 L24.5109708,17.9136375 Z M21.9356778,0.825 L10.064723,0.825 C4.95701833,0.825 0.801122132,5.1022125 0.801122132,10.3599375 C0.801122132,11.8688625 1.9937882,13.0964625 3.45977357,13.0964625 C3.68139465,13.0964625 3.86053502,13.28085 3.86053502,13.5089625 L3.86053502,18.162375 L4.64081755,18.6165375 L7.28103396,17.0808 C7.40366697,17.00985 7.55234946,17.00985 7.67538323,17.0808 L10.3168019,18.6165375 L12.9582206,17.0808 C13.0808536,17.00985 13.2295361,17.00985 13.3525699,17.0808 L15.9939886,18.6165375 L18.6362088,17.0808 C18.7580403,17.00985 18.9071235,17.00985 19.0301573,17.0808 L21.6707745,18.6165375 L24.314197,17.0808 C24.4356277,17.00985 24.5851117,17.0094375 24.7077447,17.0808 L27.3535718,18.6165375 L28.1398657,18.1603125 L28.1398657,13.5089625 C28.1398657,13.28085 28.3190061,13.0964625 28.5406272,13.0964625 C30.0062118,13.0964625 31.1988779,11.8688625 31.1988779,10.3599375 C31.1988779,5.1022125 27.0433824,0.825 21.9356778,0.825 Z"></path></clipPath><clipPath id="i6"><path d="M0.27816893,0.00053045756 L0.338476379,0.00540100017 L0.750786495,0.102424042 C0.911243604,0.139879449 1.02144766,0.370478401 0.996468076,0.616871801 C0.974427264,0.840250433 0.848941576,1 0.706410995,1 C0.692010998,1 0.677023246,0.99819492 0.661741616,0.99458476 L0.2494315,0.897561718 C0.0889743916,0.860106311 -0.0212296665,0.62950736 0.0034560425,0.38311396 C0.027847874,0.13717183 0.175080496,-0.0329569467 0.338476379,0.00540100017 Z"></path></clipPath><clipPath id="i7"><path d="M0.277749806,0.000506374548 L0.338376938,0.00550595337 L0.750859712,0.102518757 C0.91126968,0.139970212 1.02144136,0.37054483 0.996469113,0.61691223 C0.974434777,0.84026729 0.848985956,1 0.706497248,1 C0.692101482,1 0.677118133,0.998195111 0.661840994,0.994585332 L0.249358219,0.897572528 C0.0889482517,0.860121073 -0.0212234294,0.629546455 0.00345502715,0.383179055 C0.0278396926,0.137262878 0.173853894,-0.0332991682 0.338376938,0.00550595337 Z"></path></clipPath><clipPath id="i8"><path d="M0.122502253,0.0743777279 C0.267090369,-0.0389965476 0.481926485,-0.0206896533 0.602643922,0.115166773 L0.92080598,0.473275321 C1.04118241,0.609452921 1.02242687,0.811792279 0.877497747,0.925487728 C0.813728932,0.975590808 0.736319728,1 0.659251534,1 C0.561381748,1 0.46453499,0.960816823 0.397015068,0.884698683 L0.0791940199,0.526590136 C-0.0411824071,0.390412536 -0.0224268732,0.188073177 0.122502253,0.0743777279 Z"></path></clipPath><clipPath id="i9"><path d="M0.122502253,0.0743777279 C0.267090369,-0.0389965476 0.481926485,-0.0206896533 0.602643922,0.115166773 L0.92080598,0.473275321 C1.04118241,0.609452921 1.02242687,0.811792279 0.877497747,0.925487728 C0.813728932,0.975590808 0.736319728,1 0.659251534,1 C0.561381748,1 0.46453499,0.960816823 0.397015068,0.884698683 L0.0791940199,0.526590136 C-0.0411824071,0.390412536 -0.0224268732,0.188073177 0.122502253,0.0743777279 Z"></path></clipPath><clipPath id="i10"><path d="M0.122544042,0.0744747052 C0.266840355,-0.0388876921 0.482090883,-0.0209038557 0.6028495,0.115259477 L0.920778965,0.473330505 C1.04119646,0.609493838 1.02243452,0.811811998 0.877455958,0.925495535 C0.81366539,0.975593365 0.73622978,1 0.659135296,1 C0.561232123,1 0.464352329,0.960820928 0.396809374,0.884710763 L0.079221035,0.526639735 C-0.0411964555,0.390476402 -0.0224345236,0.188158242 0.122544042,0.0744747052 Z"></path></clipPath><clipPath id="i11"><path d="M0.122972395,0.0744987783 C0.267641811,-0.0391029667 0.482598726,-0.0208111603 0.603725242,0.115896024 L0.921042593,0.474030339 C1.04148671,0.610095706 1.02203822,0.812268303 0.877027605,0.925870048 C0.813222934,0.975610925 0.736111405,1 0.658999877,1 C0.560733859,1 0.463832646,0.960849116 0.396274758,0.884472802 L0.0789574071,0.526338487 C-0.0414867058,0.39027312 -0.022038223,0.188100523 0.122972395,0.0744987783 Z"></path></clipPath><clipPath id="i12"><path d="M0.498341779,0.000950901412 L0.590899349,0.00218146681 C0.844217841,0.0200511228 1.02601654,0.162720151 0.996947205,0.320953072 L0.919428978,0.744348631 C0.893128151,0.891629183 0.693334149,1 0.461702305,1 C0.44416842,1 0.426634535,0.999423559 0.409100651,0.997982458 C0.155782159,0.980112802 -0.02601654,0.837443774 0.00305279508,0.679210853 L0.080571022,0.255815294 C0.109178939,0.0972941519 0.340810784,-0.0174175107 0.590899349,0.00218146681 Z"></path></clipPath><clipPath id="i13"><path d="M0.173156488,0.0451807685 C0.342804694,-0.0434043865 0.56515213,0.00226754462 0.669106776,0.147252937 L0.947041071,0.534084998 C1.05099572,0.678763867 0.997213625,0.867275529 0.826843512,0.955247638 C0.76800807,0.985593418 0.70339737,1 0.639147624,1 C0.517506251,1 0.398752507,0.947891085 0.330893224,0.85317547 L0.0529589293,0.466343409 C-0.0509957161,0.32166454 0.00278637472,0.133152877 0.173156488,0.0451807685 Z"></path></clipPath><clipPath id="i14"><path d="M0.498322854,0.000845486541 L0.590899349,0.00240715279 C0.844217841,0.020277929 1.02601654,0.163244139 0.996947205,0.321198742 L0.919428978,0.744332605 C0.893128151,0.891622389 0.693334149,1 0.461702305,1 C0.44416842,1 0.426634535,0.999423523 0.409100651,0.997982332 C0.155782159,0.979823317 -0.02601654,0.836857107 0.00305279508,0.679190743 L0.080571022,0.25605688 C0.108717521,0.0975258005 0.340810784,-0.0183460067 0.590899349,0.00240715279 Z"></path></clipPath><clipPath id="i15"><path d="M0.498190376,0.000820049471 L0.590899349,0.00246390313 C0.844217841,0.0203285011 1.02601654,0.162957146 0.996947205,0.321145279 L0.919428978,0.744420994 C0.893128151,0.891659858 0.693334149,1 0.461702305,1 C0.44416842,1 0.426634535,0.999423723 0.409100651,0.997983029 C0.155782159,0.980118431 -0.02601654,0.837201648 0.00305279508,0.679301653 L0.080571022,0.256025938 C0.108717521,0.0975496663 0.340349366,-0.0185702202 0.590899349,0.00246390313 Z"></path></clipPath><clipPath id="i16"><path d="M0.587511414,0.0282602777 C0.741483387,-0.0523885846 0.916806942,0.0452597927 0.978455877,0.248858636 C1.04010481,0.451666804 0.964923184,0.681753264 0.810650484,0.762797464 L0.412488586,0.971931033 C0.375799952,0.991302574 0.338209138,1 0.300919051,1 C0.181530626,1 0.0684574588,0.906304998 0.0215441233,0.751332675 C-0.0401048112,0.548524507 0.0350768162,0.318438047 0.189349516,0.237393847 Z"></path></clipPath><clipPath id="i17"><path d="M0.587635423,0.0283203325 C0.741561107,-0.0527188586 0.916831953,0.0461094233 0.978462354,0.248905058 C1.04009275,0.451700692 0.964933729,0.681772932 0.81070741,0.762812123 L0.412364577,0.971932768 C0.375686973,0.990907798 0.33810746,1 0.300828584,1 C0.181476052,1 0.068436878,0.905915476 0.0215376463,0.751348043 C-0.0400927542,0.548552408 0.0350662709,0.318480168 0.18929259,0.237440977 Z"></path></clipPath><clipPath id="i18"><path d="M0.587635423,0.0283203325 C0.741861743,-0.0527188586 0.916831953,0.0461094233 0.978462354,0.248905058 C1.04009275,0.451700692 0.964933729,0.681772932 0.81070741,0.762812123 L0.412364577,0.971932768 C0.375686973,0.991303111 0.33810746,1 0.300828584,1 C0.181476052,1 0.068436878,0.905915476 0.0215376463,0.751348043 C-0.0400927542,0.548552408 0.0350662709,0.318480168 0.18929259,0.237440977 Z"></path></clipPath><clipPath id="i19"><path d="M0.587635423,0.0281613104 C0.741861743,-0.0524957655 0.916831953,0.0459533124 0.978462354,0.248782136 C1.04009275,0.451610959 0.964933729,0.681720852 0.81070741,0.762773306 L0.412364577,0.971928175 C0.375686973,0.991301688 0.33810746,1 0.300828584,1 C0.181476052,1 0.068436878,0.905900078 0.0215376463,0.751307349 C-0.0400927542,0.548478526 0.0350662709,0.318368633 0.18929259,0.237316179 Z"></path></clipPath><clipPath id="i20"><path d="M0.277885303,0.00048294271 L0.338352867,0.0056115272 L0.750604114,0.102614032 C0.911038312,0.140061511 1.02122664,0.370611652 0.996544451,0.616952898 C0.974506786,0.840284247 0.849039016,1 0.706528784,1 C0.692130843,1 0.677145232,0.998195302 0.661865784,0.994585907 L0.249614538,0.897583401 C0.089180339,0.860135923 -0.0210079841,0.630036957 0.00338036474,0.383244536 C0.0277687136,0.137354465 0.174392642,-0.0336406494 0.338352867,0.0056115272 Z"></path></clipPath><clipPath id="i21"><path d="M0.277936827,0.000506374548 L0.338501982,0.00550595337 L0.750843286,0.102518757 C0.911018632,0.139970212 1.02123103,0.37054483 0.99654345,0.61691223 C0.974500971,0.84026729 0.849005791,1 0.706464428,1 C0.692063342,1 0.677074457,0.998195111 0.661791671,0.994585332 L0.249450368,0.897572528 C0.0889811217,0.860121073 -0.0212312724,0.629546455 0.00345630392,0.383179055 C0.0278499805,0.137262878 0.17421204,-0.0332991682 0.338501982,0.00550595337 Z"></path></clipPath><clipPath id="i22"><path d="M0.277855234,0.000506374548 L0.338402609,0.00550595337 L0.750622863,0.102518757 C0.911045,0.139970212 1.02122504,0.37054483 0.996544711,0.61691223 C0.974508703,0.84026729 0.849050365,1 0.706550847,1 C0.691860175,1 0.67687569,0.998195111 0.661597391,0.994585332 L0.249377137,0.897572528 C0.0889549998,0.860121073 -0.0212250396,0.629546455 0.00345528927,0.383179055 C0.0278418046,0.137262878 0.174160897,-0.0332991682 0.338402609,0.00550595337 Z"></path></clipPath><clipPath id="i23"><path d="M0.278023947,0.000580607295 L0.338402609,0.00519298668 L0.750622863,0.102236321 C0.911045,0.139699561 1.02122504,0.370346741 0.996544711,0.616791672 C0.974508703,0.840217022 0.849050365,1 0.706550847,1 C0.692153989,1 0.677169503,0.998194543 0.661891205,0.994583628 L0.249377137,0.897540294 C0.0889549998,0.860077053 -0.0212250396,0.629429874 0.00345528927,0.382984942 C0.0278418046,0.136991375 0.174748524,-0.0322702538 0.338402609,0.00519298668 Z"></path></clipPath><clipPath id="i24"><path d="M0.404399393,0.111616247 C0.52712074,-0.0232709339 0.741035574,-0.0377922811 0.882741438,0.0783784966 C1.0244473,0.194871971 1.03970272,0.398816225 0.917659391,0.533703406 L0.595600607,0.888346975 C0.528476777,0.962244497 0.433893197,1 0.338970608,1 C0.260320463,1 0.181331309,0.974184272 0.117258562,0.921584725 C-0.0244473032,0.805091251 -0.0397027193,0.601146996 0.0823406092,0.466259816 Z"></path></clipPath><clipPath id="i25"><path d="M0.122544042,0.0744747052 C0.267181481,-0.0388876921 0.482090883,-0.0209038557 0.6028495,0.115259477 L0.920778965,0.473330505 C1.04119646,0.609493838 1.02243452,0.811811998 0.877455958,0.925495535 C0.81366539,0.975593365 0.73622978,1 0.659135296,1 C0.561573249,1 0.464693455,0.960820928 0.3971505,0.884710763 L0.079221035,0.526639735 C-0.0411964555,0.390476402 -0.0224345236,0.188158242 0.122544042,0.0744747052 Z"></path></clipPath><clipPath id="i26"><path d="M0.27783143,0.00053045756 L0.338476379,0.00540100017 L0.750786495,0.102424042 C0.911243604,0.139879449 1.02144766,0.370478401 0.996468076,0.616871801 C0.974427264,0.840250433 0.848941576,1 0.706410995,1 C0.692010998,1 0.677023246,0.99819492 0.661741616,0.99458476 L0.2494315,0.897561718 C0.0889743916,0.860106311 -0.0212296665,0.62950736 0.0034560425,0.38311396 C0.027847874,0.13717183 0.173904986,-0.0329569467 0.338476379,0.00540100017 Z"></path></clipPath><clipPath id="i27"><path d="M0.278087207,0.000555199262 L0.338376938,0.00529667533 L0.750859712,0.102329894 C0.91126968,0.13978923 1.02144136,0.370412369 0.996469113,0.616831614 C0.974434777,0.840233677 0.848985956,1 0.706497248,1 C0.692101482,1 0.677118133,0.998194731 0.661840994,0.994584192 L0.249358219,0.897550973 C0.0889482517,0.860091638 -0.0212234294,0.629468498 0.00345502715,0.383049254 C0.0278396926,0.137081326 0.175029059,-0.0326139777 0.338376938,0.00529667533 Z"></path></clipPath><clipPath id="i28"><path d="M0.277689289,0.000580607295 L0.338303211,0.00519298668 L0.750696112,0.102236321 C0.911071129,0.139699561 1.02121881,0.370346741 0.996545726,0.616791672 C0.97451619,0.840217022 0.849094703,1 0.706637041,1 C0.691950684,1 0.6769706,0.998194543 0.661696789,0.994583628 L0.249303888,0.897540294 C0.0889288713,0.860077053 -0.0212188052,0.629429874 0.00345427435,0.382984942 C0.0278336268,0.136991375 0.173816014,-0.0322702538 0.338303211,0.00519298668 Z"></path></clipPath><clipPath id="i29"><path d="M0.122540437,0.0744747052 C0.267173621,-0.0388876921 0.482076701,-0.0209038557 0.602831766,0.115259477 L0.920751878,0.473330505 C1.04116583,0.609493838 1.02240445,0.811490858 0.877771262,0.925495535 C0.81398257,0.975593365 0.736549238,1 0.659457022,1 C0.56155673,1 0.464679785,0.960820928 0.397138817,0.884710763 L0.0792187046,0.526639735 C-0.0411952437,0.390476402 -0.0224338636,0.188158242 0.122540437,0.0744747052 Z"></path></clipPath><clipPath id="i30"><path d="M0.562088483,0.000966701623 C0.823239279,0.013146498 1.01850993,0.152344171 0.998603698,0.3121315 L0.94646833,0.73204448 C0.927510015,0.884291934 0.71991646,1 0.474406274,1 C0.462557327,1 0.450234422,0.999710005 0.437911517,0.999130015 C0.176760721,0.986950218 -0.0185099291,0.847752545 0.00139630217,0.687965217 L0.0535316698,0.268052237 C0.0734379011,0.108554903 0.291458529,-0.0120830802 0.562088483,0.000966701623 Z"></path></clipPath><clipPath id="i31"><path d="M0.122502253,0.0745975347 C0.267090369,-0.0390709152 0.481926485,-0.0207683682 0.602643922,0.115376894 L0.92080598,0.473400401 C1.04118241,0.609545663 1.02242687,0.811836973 0.877497747,0.925505423 C0.813728932,0.975596604 0.736319728,1 0.659251534,1 C0.561381748,1 0.46453499,0.960826127 0.397015068,0.884726063 L0.0791940199,0.526702556 C-0.0411824071,0.390557294 -0.0224268732,0.188265985 0.122502253,0.0745975347 Z"></path></clipPath><clipPath id="i32"><path d="M0.122972395,0.0741586062 C0.267983012,-0.0391245869 0.483281129,-0.0205114843 0.60338404,0.115556714 L0.921042593,0.474019395 C1.04148671,0.610408509 1.02203822,0.812264397 0.877027605,0.925868505 C0.813222934,0.975610417 0.735770204,1 0.658999877,1 C0.560733859,1 0.463491445,0.960527386 0.396274758,0.884470398 L0.0789574071,0.526007716 C-0.0414867058,0.389618603 -0.022038223,0.187441799 0.122972395,0.0741586062 Z"></path></clipPath><clipPath id="i33"><path d="M0.498497865,0.000820049471 L0.590934044,0.00246390313 C0.844231052,0.0203285011 1.02601433,0.162957146 0.996947464,0.321145279 L0.919435811,0.744420994 C0.893137214,0.891659858 0.693360157,1 0.461747956,1 C0.444215558,1 0.42668316,0.999423723 0.409150763,0.997983029 C0.155853754,0.979830293 -0.0263909057,0.837201648 0.00313734298,0.679301653 L0.0806489959,0.256025938 C0.108793108,0.0975496663 0.341328067,-0.0185702202 0.590934044,0.00246390313 Z"></path></clipPath><clipPath id="i34"><path d="M0.498760811,0.000897342713 L0.591310517,0.00229365595 C0.844146104,0.0204547365 1.02639073,0.163437212 0.99686249,0.321121514 L0.91935085,0.744303517 C0.893052258,0.891610059 0.693275233,1 0.461663071,1 C0.444130677,1 0.426598282,0.999423458 0.409065887,0.997982102 C0.155768921,0.980109293 -0.0260143293,0.837126818 0.00305253567,0.679154244 L0.0810255543,0.255972241 C0.10963104,0.0974231253 0.341243202,-0.0178853224 0.591310517,0.00229365595 Z"></path></clipPath><clipPath id="i35"><path d="M0.498413059,0.000958254288 L0.590849237,0.0021770036 C0.844146246,0.0203349611 1.02639091,0.163004627 0.996862657,0.320950035 L0.919351004,0.744347488 C0.893052408,0.891628698 0.69327535,1 0.461663149,1 C0.444130751,1 0.426598354,0.999423557 0.409065956,0.997982449 C0.155768948,0.980112713 -0.0260143336,0.837443047 0.00305253618,0.679209418 L0.0805641891,0.255811965 C0.108708301,0.0975783357 0.34124326,-0.0174220616 0.590849237,0.0021770036 Z"></path></clipPath><clipPath id="i36"><path d="M0.497796127,0.000958530557 L0.590903128,0.00217763124 C0.843761819,0.0203408237 1.0260231,0.163339927 0.996953581,0.321042566 L0.919434858,0.744273782 C0.893133863,0.891597454 0.693338583,1 0.461705257,1 C0.44417126,1 0.426637264,0.999423391 0.409103267,0.997981868 C0.155783155,0.98010698 -0.0260167064,0.837107877 0.0030528146,0.679116933 L0.0805715373,0.255885717 C0.108718216,0.097606468 0.33896728,-0.0174270845 0.590903128,0.00217763124 Z"></path></clipPath><clipPath id="i37"><path d="M0.587511414,0.0283698313 C0.741784114,-0.0526652316 0.916806942,0.0457627228 0.978455877,0.24894332 C1.04010481,0.451728623 0.964923184,0.681789143 0.810650484,0.762824206 L0.412488586,0.971934198 C0.375799952,0.991303554 0.338209138,1 0.300919051,1 C0.181530626,1 0.0684574588,0.906315561 0.0215441233,0.751360709 C-0.0401048112,0.548575406 0.0350768162,0.318514886 0.189349516,0.237479823 Z"></path></clipPath><clipPath id="i38"><path d="M0.587635423,0.0283203325 C0.741561107,-0.0527188586 0.916831953,0.0461094233 0.978462354,0.248905058 C1.04009275,0.451700692 0.964933729,0.681772932 0.81070741,0.762812123 L0.412364577,0.971932768 C0.375686973,0.991303111 0.33810746,1 0.300828584,1 C0.181476052,1 0.068436878,0.905915476 0.0215376463,0.751348043 C-0.0400927542,0.548552408 0.0350662709,0.318480168 0.18929259,0.237440977 Z"></path></clipPath><clipPath id="i39"><path d="M0.277749806,0.000555199262 L0.338376938,0.00529667533 L0.750859712,0.102329894 C0.91126968,0.13978923 1.02144136,0.370412369 0.996469113,0.616831614 C0.974434777,0.840233677 0.848985956,1 0.706497248,1 C0.692101482,1 0.677118133,0.998194731 0.661840994,0.994584192 L0.249358219,0.897550973 C0.0889482517,0.860091638 -0.0212234294,0.629468498 0.00345502715,0.383049254 C0.0278396926,0.137081326 0.173853894,-0.0326139777 0.338376938,0.00529667533 Z"></path></clipPath><clipPath id="i40"><path d="M0.278087207,0.000555199262 L0.338376938,0.00529667533 L0.750859712,0.102329894 C0.91126968,0.13978923 1.02144136,0.370412369 0.996469113,0.616831614 C0.974434777,0.840233677 0.848985956,1 0.706497248,1 C0.692101482,1 0.677118133,0.998194731 0.661840994,0.994584192 L0.249358219,0.897550973 C0.0889482517,0.860091638 -0.0212234294,0.629468498 0.00345502715,0.383049254 C0.0278396926,0.137081326 0.175029059,-0.0326139777 0.338376938,0.00529667533 Z"></path></clipPath><clipPath id="i41"><path d="M0.278181727,0.000546814711 L0.338648983,0.00530548206 L0.750894221,0.102744945 C0.91132608,0.14063807 1.02121897,0.371154577 0.996537142,0.617459886 C0.974205967,0.840307547 0.849033856,1 0.706525702,1 C0.69183414,1 0.676848747,0.998195566 0.661569522,0.994586697 L0.249324285,0.897147234 C0.0888924247,0.859254109 -0.0210004611,0.628737602 0.0033875323,0.382432292 C0.0280693569,0.136578092 0.174691148,-0.0325876424 0.338648983,0.00530548206 Z"></path></clipPath><clipPath id="i42"><path d="M0.404196032,0.112008771 C0.527299892,-0.0235131458 0.741290347,-0.03771068 0.882368047,0.0784509633 C1.02412401,0.194935278 1.04006307,0.398863496 0.917637473,0.533417399 L0.595803968,0.888033083 C0.528656408,0.962247466 0.434039392,1 0.339083247,1 C0.260405299,1 0.181388221,0.974186301 0.117631953,0.921590891 C-0.0241240065,0.805106576 -0.0400630737,0.601178358 0.0823625273,0.466624455 Z"></path></clipPath><clipPath id="i43"><path d="M0.404196032,0.111892207 C0.527299892,-0.0236474994 0.741629476,-0.0375241837 0.882368047,0.0783299942 C1.02412401,0.194829599 1.04006307,0.398784587 0.917637473,0.533356153 L0.595803968,0.888018385 C0.528656408,0.96224251 0.434039392,1 0.339083247,1 C0.260405299,1 0.181388221,0.974182913 0.117631953,0.921580598 C-0.0241240065,0.805080993 -0.0400630737,0.601126006 0.0823625273,0.46655444 Z"></path></clipPath><clipPath id="i44"><path d="M0.122502253,0.074694506 C0.267090369,-0.0389620329 0.481926485,-0.0209824674 0.602643922,0.115469592 L0.92080598,0.473455583 C1.04118241,0.609586578 1.02242687,0.81185669 0.877497747,0.925513229 C0.813728932,0.975599161 0.736319728,1 0.659251534,1 C0.561381748,1 0.46453499,0.960830232 0.397015068,0.884738143 L0.0791940199,0.526752152 C-0.0411824071,0.390621156 -0.0224268732,0.188351045 0.122502253,0.074694506 Z"></path></clipPath><clipPath id="i45"><path d="M0.278253305,0.000580607295 L0.338476379,0.00519298668 L0.750786495,0.102236321 C0.911243604,0.139699561 1.02144766,0.369895376 0.996468076,0.616791672 C0.974427264,0.840217022 0.848941576,1 0.706410995,1 C0.692010998,1 0.677023246,0.998194543 0.661741616,0.994583628 L0.2494315,0.897540294 C0.0889743916,0.860077053 -0.0212296665,0.629429874 0.0034560425,0.382984942 C0.027847874,0.136991375 0.175374373,-0.0322702538 0.338476379,0.00519298668 Z"></path></clipPath><clipPath id="i46"><path d="M0.122502253,0.0744747052 C0.266749359,-0.0388876921 0.481926485,-0.0209038557 0.602643922,0.115259477 L0.92080598,0.473330505 C1.04118241,0.609493838 1.02242687,0.811811998 0.877497747,0.925495535 C0.813728932,0.975593365 0.736319728,1 0.659251534,1 C0.561381748,1 0.46453499,0.960820928 0.397015068,0.884710763 L0.0791940199,0.526639735 C-0.0411824071,0.390476402 -0.0224268732,0.188158242 0.122502253,0.0744747052 Z"></path></clipPath><clipPath id="i47"><path d="M0.498455331,0.000870919294 L0.590899349,0.00234948789 C0.844217841,0.0202161348 1.02601654,0.16314931 0.996947205,0.321067416 L0.919428978,0.74439168 C0.893128151,0.891647431 0.693334149,1 0.461702305,1 C0.44416842,1 0.426634535,0.999423657 0.409100651,0.997982798 C0.155782159,0.980116151 -0.02601654,0.837471147 0.00305279508,0.67926487 L0.080571022,0.255940606 C0.108717521,0.0974461572 0.341272202,-0.0181107046 0.590899349,0.00234948789 Z"></path></clipPath><clipPath id="i48"><path d="M0.406370808,0.109986884 C0.530756595,-0.0251801852 0.745882834,-0.0375868244 0.885901808,0.0828881719 C1.02626063,0.202383697 1.03883515,0.408725696 0.914109514,0.543566274 L0.593629192,0.89029919 C0.526678372,0.963106573 0.433219106,1 0.339759839,1 C0.259554796,1 0.178670049,0.972901288 0.114098192,0.917397902 C-0.0262606335,0.797902378 -0.038835153,0.591560378 0.0858904863,0.4567198 Z"></path></clipPath><clipPath id="i49"><path d="M0.122566374,0.0747203687 C0.267195256,-0.0392540481 0.482433049,-0.0206328758 0.602843415,0.115494315 L0.920754069,0.4734703 C1.04150554,0.609597491 1.02206251,0.811861949 0.877433626,0.925515311 C0.813646832,0.975599843 0.736215803,1 0.65912588,1 C0.560887395,1 0.464013333,0.960831327 0.39681548,0.884741364 L0.0792459307,0.526765379 C-0.0415055411,0.390638189 -0.0220625075,0.188373731 0.122566374,0.0747203687 Z"></path></clipPath><clipPath id="i50"><path d="M122,0 L122,25 L0,25 L0,0 L122,0 Z"></path></clipPath></defs><g transform="translate(-980.0 -2578.0)"><g clip-path="url(#i0)"><g transform="translate(1007.0 2603.5)"><path d="M213,-9 C225.150264,-9 236.150264,-4.07513225 244.112698,3.88730163 C252.075132,11.8497355 257,22.8497355 257,35 C257,47.1502645 252.075132,58.1502645 244.112698,66.1126984 C236.150264,74.0751322 225.150264,79 213,79 L35,79 C22.8497355,79 11.8497355,74.0751322 3.88730163,66.1126984 C-4.07513225,58.1502645 -9,47.1502645 -9,35 C-9,22.8497355 -4.07513225,11.8497355 3.88730163,3.88730163 C11.8497355,-4.07513225 22.8497355,-9 35,-9 Z" stroke="none" fill="#000000" filter="url(#i1)"></path><g clip-path="url(#i4)"><polygon points="0,0 248,0 248,70 0,70 0,0" stroke="none" fill="#FFFFFF"></polygon></g><g transform="translate(32.0 18.500000000000455)"><g clip-path="url(#i5)"><polygon points="0,0 32,0 32,33 0,33 0,0" stroke="none" fill="#FF8A00"></polygon></g><g transform="translate(11.0 5.0)"><g clip-path="url(#i6)"><polygon points="8.64325972e-16,-4.94396191e-16 1,-4.94396191e-16 1,1 8.64325972e-16,1 8.64325972e-16,-4.94396191e-16" stroke="none" fill="#FF8A00"></polygon></g></g><g transform="translate(23.0 8.0)"><g clip-path="url(#i7)"><polygon points="8.63892291e-16,-4.72712147e-16 1,-4.72712147e-16 1,1 8.63892291e-16,1 8.63892291e-16,-4.72712147e-16" stroke="none" fill="#FF8A00"></polygon></g></g><g transform="translate(12.0 8.0)"><g clip-path="url(#i8)"><polygon points="-1.09634524e-15,-9.71445147e-17 1,-9.71445147e-17 1,1 -1.09634524e-15,1 -1.09634524e-15,-9.71445147e-17" stroke="none" fill="#FF8A00"></polygon></g></g><g transform="translate(2.0 10.0)"><g clip-path="url(#i9)"><polygon points="-6.9388939e-17,-1.94289029e-16 1,-1.94289029e-16 1,1 -6.9388939e-17,1 -6.9388939e-17,-1.94289029e-16" stroke="none" fill="#FF8A00"></polygon></g></g><g transform="translate(6.0 4.0)"><g clip-path="url(#i10)"><polygon points="-5.82867088e-16,1.38777878e-16 1,1.38777878e-16 1,1 -5.82867088e-16,1 -5.82867088e-16,1.38777878e-16" stroke="none" fill="#FF8A00"></polygon></g></g><g transform="translate(15.0 7.0)"><g clip-path="url(#i11)"><polygon points="-2.49800181e-16,9.71445147e-17 1,9.71445147e-17 1,1 -2.49800181e-16,1 -2.49800181e-16,9.71445147e-17" stroke="none" fill="#FF8A00"></polygon></g></g><g transform="translate(7.0 7.0)"><g clip-path="url(#i12)"><polygon points="-5.63351449e-16,3.54750951e-16 1,3.54750951e-16 1,1 -5.63351449e-16,1 -5.63351449e-16,3.54750951e-16" stroke="none" fill="#FF8A00"></polygon></g></g><g transform="translate(9.0 6.0)"><g clip-path="url(#i13)"><polygon points="-5.82867088e-16,1.66533454e-16 1,1.66533454e-16 1,1 -5.82867088e-16,1 -5.82867088e-16,1.66533454e-16" stroke="none" fill="#FF8A00"></polygon></g></g><g transform="translate(23.0 3.0)"><g clip-path="url(#i14)"><polygon points="-2.13414356e-15,4.28476699e-16 1,4.28476699e-16 1,1 -2.13414356e-15,1 -2.13414356e-15,4.28476699e-16" stroke="none" fill="#FF8A00"></polygon></g></g><g transform="translate(26.0 4.0)"><g clip-path="url(#i15)"><polygon points="-2.22478286e-15,3.05311332e-16 1,3.05311332e-16 1,1 -2.22478286e-15,1 -2.22478286e-15,3.05311332e-16" stroke="none" fill="#FF8A00"></polygon></g></g><g transform="translate(27.0 7.0)"><g clip-path="url(#i16)"><polygon points="-1.94289029e-15,-2.77555756e-16 1,-2.77555756e-16 1,1 -1.94289029e-15,1 -1.94289029e-15,-2.77555756e-16" stroke="none" fill="#FF8A00"></polygon></g></g><g transform="translate(21.0 7.0)"><g clip-path="url(#i17)"><polygon points="-1.99840144e-15,-5.82867088e-16 1,-5.82867088e-16 1,1 -1.99840144e-15,1 -1.99840144e-15,-5.82867088e-16" stroke="none" fill="#FF8A00"></polygon></g></g><g transform="translate(14.0 2.0)"><g clip-path="url(#i18)"><polygon points="1.66533454e-16,-2.77555756e-16 1,-2.77555756e-16 1,1 1.66533454e-16,1 1.66533454e-16,-2.77555756e-16" stroke="none" fill="#FF8A00"></polygon></g></g><g transform="translate(9.0 3.0)"><g clip-path="url(#i19)"><polygon points="-4.16333634e-16,2.77555756e-17 1,2.77555756e-17 1,1 -4.16333634e-16,1 -4.16333634e-16,2.77555756e-17" stroke="none" fill="#FF8A00"></polygon></g></g><g transform="translate(18.0 6.0)"><g clip-path="url(#i20)"><polygon points="6.58327559e-16,-1.6479873e-17 1,-1.6479873e-17 1,1 6.58327559e-16,1 6.58327559e-16,-1.6479873e-17" stroke="none" fill="#FF8A00"></polygon></g></g><g transform="translate(19.0 4.0)"><g clip-path="url(#i21)"><polygon points="8.6345861e-16,-4.72712147e-16 1,-4.72712147e-16 1,1 8.6345861e-16,1 8.6345861e-16,-4.72712147e-16" stroke="none" fill="#FF8A00"></polygon></g></g><g transform="translate(5.0 12.0)"><g clip-path="url(#i22)"><polygon points="8.76035355e-17,-4.70977424e-16 1,-4.70977424e-16 1,1 8.76035355e-17,1 8.76035355e-17,-4.70977424e-16" stroke="none" fill="#FF8A00"></polygon></g></g><g transform="translate(4.0 6.0)"><g clip-path="url(#i23)"><polygon points="8.76035355e-17,-9.54097912e-18 1,-9.54097912e-18 1,1 8.76035355e-17,1 8.76035355e-17,-9.54097912e-18" stroke="none" fill="#FF8A00"></polygon></g></g><g transform="translate(16.0 4.0)"><g clip-path="url(#i24)"><polygon points="-9.15933995e-16,-1.2490009e-16 1,-1.2490009e-16 1,1 -9.15933995e-16,1 -9.15933995e-16,-1.2490009e-16" stroke="none" fill="#FF8A00"></polygon></g></g><g transform="translate(14.0 4.0)"><g clip-path="url(#i25)"><polygon points="-1.11022302e-15,1.38777878e-16 1,1.38777878e-16 1,1 -1.11022302e-15,1 -1.11022302e-15,1.38777878e-16" stroke="none" fill="#FF8A00"></polygon></g></g><g transform="translate(22.0 10.0)"><g clip-path="url(#i26)"><polygon points="8.64325972e-16,-4.91794105e-16 1,-4.91794105e-16 1,1 8.64325972e-16,1 8.64325972e-16,-4.91794105e-16" stroke="none" fill="#FF8A00"></polygon></g></g><g transform="translate(27.0 12.0)"><g clip-path="url(#i27)"><polygon points="8.63892291e-16,-3.4434261e-16 1,-3.4434261e-16 1,1 8.63892291e-16,1 8.63892291e-16,-3.4434261e-16" stroke="none" fill="#FF8A00"></polygon></g></g><g transform="translate(10.0 10.0)"><g clip-path="url(#i28)"><polygon points="8.63892291e-16,-4.59701721e-17 1,-4.59701721e-17 1,1 8.63892291e-16,1 8.63892291e-16,-4.59701721e-17" stroke="none" fill="#FF8A00"></polygon></g></g><g transform="translate(26.0 9.0)"><g clip-path="url(#i29)"><polygon points="-1.67921232e-15,1.38777878e-16 1,1.38777878e-16 1,1 -1.67921232e-15,1 -1.67921232e-15,1.38777878e-16" stroke="none" fill="#FF8A00"></polygon></g></g><g transform="translate(4.0 9.0)"><g clip-path="url(#i30)"><polygon points="-2.90999863e-16,2.56522234e-16 1,2.56522234e-16 1,1 -2.90999863e-16,1 -2.90999863e-16,2.56522234e-16" stroke="none" fill="#FF8A00"></polygon></g></g><g transform="translate(25.0 12.0)"><g clip-path="url(#i31)"><polygon points="-1.66533454e-15,7.91033905e-16 1,7.91033905e-16 1,1 -1.66533454e-15,1 -1.66533454e-15,7.91033905e-16" stroke="none" fill="#FF8A00"></polygon></g></g><g transform="translate(19.0 9.0)"><g clip-path="url(#i32)"><polygon points="-1.0269563e-15,-4.4408921e-16 1,-4.4408921e-16 1,1 -1.0269563e-15,1 -1.0269563e-15,-4.4408921e-16" stroke="none" fill="#FF8A00"></polygon></g></g><g transform="translate(28.0 9.0)"><g clip-path="url(#i33)"><polygon points="4.01588485e-16,3.05311332e-16 1,3.05311332e-16 1,1 4.01588485e-16,1 4.01588485e-16,3.05311332e-16" stroke="none" fill="#FF8A00"></polygon></g></g><g transform="translate(13.0 12.0)"><g clip-path="url(#i34)"><polygon points="-8.40039843e-16,-4.67941658e-16 1,-4.67941658e-16 1,1 -8.40039843e-16,1 -8.40039843e-16,-4.67941658e-16" stroke="none" fill="#FF8A00"></polygon></g></g><g transform="translate(10.0 12.0)"><g clip-path="url(#i35)"><polygon points="-8.40039843e-16,-9.19403442e-16 1,-9.19403442e-16 1,1 -8.40039843e-16,1 -8.40039843e-16,-9.19403442e-16" stroke="none" fill="#FF8A00"></polygon></g></g><g transform="translate(8.0 15.0)"><g clip-path="url(#i36)"><polygon points="-5.62917768e-16,-9.20270804e-16 1,-9.20270804e-16 1,1 -5.62917768e-16,1 -5.62917768e-16,-9.20270804e-16" stroke="none" fill="#FF8A00"></polygon></g></g><g transform="translate(7.0 11.0)"><g clip-path="url(#i37)"><polygon points="-4.4408921e-16,3.88578059e-16 1,3.88578059e-16 1,1 -4.4408921e-16,1 -4.4408921e-16,3.88578059e-16" stroke="none" fill="#FF8A00"></polygon></g></g><g transform="translate(14.0 10.0)"><g clip-path="url(#i38)"><polygon points="1.66533454e-16,1.0269563e-15 1,1.0269563e-15 1,1 1.66533454e-16,1 1.66533454e-16,1.0269563e-15" stroke="none" fill="#FF8A00"></polygon></g></g><g transform="translate(16.0 10.0)"><g clip-path="url(#i39)"><polygon points="8.63892291e-16,-3.4434261e-16 1,-3.4434261e-16 1,1 8.63892291e-16,1 8.63892291e-16,-3.4434261e-16" stroke="none" fill="#FF8A00"></polygon></g></g><g transform="translate(15.0 12.0)"><g clip-path="url(#i40)"><polygon points="8.63892291e-16,-3.4434261e-16 1,-3.4434261e-16 1,1 8.63892291e-16,1 8.63892291e-16,-3.4434261e-16" stroke="none" fill="#FF8A00"></polygon></g></g><g transform="translate(18.0 2.0)"><g clip-path="url(#i41)"><polygon points="-8.72132228e-16,-1.74339709e-16 1,-1.74339709e-16 1,1 -8.72132228e-16,1 -8.72132228e-16,-1.74339709e-16" stroke="none" fill="#FF8A00"></polygon></g></g><g transform="translate(18.0 12.0)"><g clip-path="url(#i42)"><polygon points="-8.60422844e-16,-9.29811783e-16 1,-9.29811783e-16 1,1 -8.60422844e-16,1 -8.60422844e-16,-9.29811783e-16" stroke="none" fill="#FF8A00"></polygon></g></g><g transform="translate(21.0 16.0)"><g clip-path="url(#i43)"><polygon points="-8.46545056e-16,4.16333634e-16 1,4.16333634e-16 1,1 -8.46545056e-16,1 -8.46545056e-16,4.16333634e-16" stroke="none" fill="#FF8A00"></polygon></g></g><g transform="translate(21.0 12.0)"><g clip-path="url(#i44)"><polygon points="-1.66533454e-15,-1.66533454e-16 1,-1.66533454e-16 1,1 -1.66533454e-15,1 -1.66533454e-15,-1.66533454e-16" stroke="none" fill="#FF8A00"></polygon></g></g><g transform="translate(25.0 15.0)"><g clip-path="url(#i45)"><polygon points="8.64325972e-16,-8.67361738e-18 1,-8.67361738e-18 1,1 8.64325972e-16,1 8.64325972e-16,-8.67361738e-18" stroke="none" fill="#FF8A00"></polygon></g></g><g transform="translate(6.0 14.0)"><g clip-path="url(#i46)"><polygon points="-6.10622664e-16,-7.49400542e-16 1,-7.49400542e-16 1,1 -6.10622664e-16,1 -6.10622664e-16,-7.49400542e-16" stroke="none" fill="#FF8A00"></polygon></g></g><g transform="translate(18.0 14.0)"><g clip-path="url(#i47)"><polygon points="-8.40473524e-16,-2.71917905e-16 1,-2.71917905e-16 1,1 -8.40473524e-16,1 -8.40473524e-16,-2.71917905e-16" stroke="none" fill="#FF8A00"></polygon></g></g><g transform="translate(14.0 15.0)"><g clip-path="url(#i48)"><polygon points="-5.82867088e-16,-2.77555756e-16 1,-2.77555756e-16 1,1 -5.82867088e-16,1 -5.82867088e-16,-2.77555756e-16" stroke="none" fill="#FF8A00"></polygon></g></g><g transform="translate(11.0 14.0)"><g clip-path="url(#i49)"><polygon points="8.60422844e-16,-5.41233725e-16 1,-5.41233725e-16 1,1 8.60422844e-16,1 8.60422844e-16,-5.41233725e-16" stroke="none" fill="#FF8A00"></polygon></g></g></g><g transform="translate(79.0 25.499999714286332)"><g clip-path="url(#i50)"><text transform="translate(0.0 17.0)" font-family=".AppleSystemUIFont" font-size="18.0" font-weight="normal" fill="#989898" text-anchor="left" line-spacing="23.714286">TOP SELLERS</text></g></g></g></g></g></svg>