<?xml version="1.0" encoding="UTF-8"?><svg version="1.1" width="144px" height="48px" viewBox="0 0 144.0 48.0" xmlns="http://www.w3.org/2000/svg" xmlns:xlink="http://www.w3.org/1999/xlink"><defs><clipPath id="i0"><path d="M1440,0 L1440,5146 L0,5146 L0,0 L1440,0 Z"></path></clipPath><clipPath id="i1"><path d="M133.184964,0.000299999025 L133.83719,0.0023999922 C134.203857,0.0047399846 134.579909,0.0117719617 134.946576,0.0176279427 C135.753095,0.0265652315 136.557724,0.097479023 137.353313,0.229739253 C138.152005,0.365243305 138.92595,0.618834845 139.649581,0.982136808 C141.096877,1.72338088 142.274759,2.89838188 143.01757,4.34188589 C143.380589,5.06114348 143.631796,5.83127497 143.762575,6.62586247 C143.896772,7.42001469 143.971427,8.22303621 143.985921,9.02825466 C143.990614,9.39622146 143.990614,9.76536426 143.990614,10.1333311 C144,10.5680897 144,11.0040242 144,11.4434748 L144,36.5577972 C144,37.0008357 144,37.4343943 143.990614,37.8703529 C143.990614,38.2429517 143.990614,38.6039105 143.985921,38.9766293 C143.971424,39.7818078 143.896769,40.5847892 143.762575,41.3789015 C143.63216,42.1739523 143.380938,42.9445253 143.01757,43.6640541 C142.648451,44.3801605 142.168614,45.0338758 141.595669,45.6012078 C141.026994,46.1734248 140.369951,46.6509699 139.649581,47.0156432 C138.925952,47.3799157 138.15209,47.6350168 137.353313,47.7726007 C136.557586,47.9037861 135.753041,47.9747085 134.946576,47.98476 C134.579909,47.99292 134.203857,47.9976 133.83719,47.9976 C133.404699,48 132.965229,48 132.532738,48 L11.4737358,48 C11.0324845,48 10.5964679,48 10.1563719,47.9976 C9.78796058,47.9976 9.42248546,47.99292 9.05053622,47.98476 C8.2425432,47.9741439 7.43648072,47.903226 6.63910562,47.7726007 C5.84289724,47.6359786 5.07179965,47.3808099 4.35164607,47.0156432 C3.63062632,46.6511809 2.97297639,46.1736228 2.40381327,45.6012078 C1.82938619,45.0360891 1.35057147,44.3818952 0.985980169,43.6640541 C0.61986505,42.9450484 0.366228369,42.1744138 0.233874713,41.3789015 C0.0998957052,40.5848982 0.0277988021,39.7817381 0.0182310363,38.9766293 C0.00706377445,38.6039105 0.00588447309,38.2429517 0,37.8703529 L0,10.1333311 C0.00588447309,9.76536426 0.00706377445,9.39622146 0.0182310363,9.02830266 C0.027795869,8.22315393 0.0998927709,7.41995377 0.233874713,6.62591047 C0.36659485,5.830863 0.620216534,5.0606705 0.985980169,4.34193389 C1.35073709,3.62176388 1.82948449,2.96491076 2.40381327,2.39663221 C2.97514269,1.8267511 3.6323678,1.34951767 4.35164607,0.982244808 C5.07180512,0.61805288 5.84298585,0.364393969 6.63910562,0.229847253 C7.43634519,0.0981671929 8.24249058,0.0272780757 9.05053622,0.0177959422 C9.42248546,0.0119279612 9.78796058,0.00495598389 10.1563719,0.00255599169 C10.59648,0 11.0324605,0 11.4737358,0 L133.184964,0.000299999025 Z"></path></clipPath><clipPath id="i2"><path d="M132.780741,0 L133.879537,0.0152399505 C134.628842,0.0241189588 135.376409,0.0893397167 136.115877,0.210347316 C136.815116,0.328769013 137.49278,0.550336852 138.126586,0.86776518 C139.375464,1.50957835 140.391653,2.52498733 141.032721,3.77167174 C141.346232,4.39507879 141.563369,5.06219166 141.676764,5.75036931 C141.801661,6.49916853 141.871562,7.25606242 141.88591,8.01501395 C141.8894,8.35485285 141.8894,8.71989166 141.8894,9.08317848 C141.895737,9.3831775 141.89785,9.67353923 141.898554,9.96173029 L141.898906,35.5076446 C141.898906,35.9436032 141.898906,36.3690018 141.8894,36.7978804 C141.8894,37.1881191 141.8894,37.545598 141.884706,37.9135168 C141.870669,38.6589252 141.801934,39.402309 141.679051,40.1377096 C141.566764,40.8349807 141.347595,41.5108809 141.029232,42.141703 C140.712051,42.7566064 140.299604,43.3177786 139.80709,43.8045376 C139.315491,44.3010776 138.746873,44.7153859 138.123096,45.0315336 C137.491046,45.350725 136.81438,45.5731402 136.115877,45.6912915 C135.37205,45.8124443 134.620168,45.8778671 133.86654,45.8870109 C133.514074,45.8951708 133.145,45.8998508 132.786637,45.8998508 L131.482185,45.9022508 L9.11169142,45.8998508 C8.74504904,45.8998508 8.38726345,45.8951708 8.02349711,45.8870109 C7.26992568,45.8772198 6.51811553,45.8118012 5.77423248,45.6912915 C5.08059908,45.5721657 4.40865475,45.35057 3.78056337,45.0338136 C3.15823125,44.7196819 2.59061433,44.3077834 2.09945726,43.8138976 C1.60119079,43.3258295 1.1863612,42.7597538 0.871407432,42.1381031 C0.552983143,41.5124121 0.332614584,40.8417467 0.217978212,40.1494695 C0.0941808815,39.4056098 0.0272013963,38.6534503 0.0176173182,37.8994768 C0.015074199,37.8151171 0.0122690127,37.6652509 0.00965903968,37.5029226 L0.00594764995,37.2567139 C0.00364721006,37.0951844 0.00177062338,36.9477149 0.000775170024,36.8673496 L0.000820574909,9.02059152 C0.00344598007,8.82289133 0.0118110641,8.21286331 0.0176774867,8.00973397 C0.026854168,7.25695487 0.0934441664,6.50596257 0.216871113,5.76325727 C0.331719088,5.06908362 0.552258247,4.39648435 0.870853883,3.76874375 C1.18465012,3.14752239 1.59717666,2.58102396 2.09244162,2.0912092 C2.5871499,1.59674051 3.15658252,1.1827211 3.77997372,0.864249191 C4.40662157,0.548510541 5.077296,0.328477987 5.76952731,0.211523313 C6.51585339,0.0898030744 7.27027353,0.0239952232 8.0264574,0.0146519524 L9.11228107,0 L132.780741,0 Z"></path></clipPath><clipPath id="i3"><path d="M15.5514324,0.00205551971 L15.8395967,0.0215199683 C17.760308,0.081445797 19.5402355,1.04100398 20.6424338,2.61072755 C18.9031845,3.67700342 17.8329253,5.55742492 17.8066232,7.59318336 C17.8091061,9.89640108 19.1922982,11.9749707 21.3195454,12.8721702 C20.9104285,14.197477 20.2937411,15.4499415 19.4923262,16.5831701 L19.2327071,16.9670047 C18.2312631,18.4297507 17.1443127,19.7594552 15.4965283,19.7861277 C13.7562044,19.8261836 13.1713311,18.7648111 11.1752312,18.7648111 C9.16043093,18.7648111 8.5370378,19.7571478 6.86789317,19.8261836 C5.16217816,19.8891834 3.85859288,18.1126492 2.7431904,16.5222343 C0.513817461,13.2743129 -1.22215024,7.36907209 1.10516489,3.35098115 C2.1980369,1.39261809 4.24143413,0.149917651 6.48773695,0.0775477862 C8.19499227,0.0425199 9.78043057,1.22731205 10.830093,1.22731205 C11.8598277,1.22731205 13.8188518,-0.189991344 15.8395967,0.0215199683 Z"></path></clipPath><clipPath id="i4"><path d="M5.24799355,0 C5.36449764,1.51707401 4.88338077,3.01968447 3.90681503,4.18873039 C2.95936203,5.36384243 1.52376809,6.04070449 0.0117872283,6.02518042 C-0.0843683936,4.55178042 0.410750562,3.10069275 1.38809208,1.99152553 C2.37785107,0.867332791 3.75601828,0.156264077 5.24799355,0 Z"></path></clipPath><clipPath id="i5"><path d="M7.90180043,0 L13.2969838,14.9015516 L10.8432307,14.9015516 L9.47652875,10.8738247 L3.7805032,10.8738247 L2.4126099,14.9015516 L0,14.9015516 L5.39518337,0 L7.90180043,0 Z M6.6597073,2.47853194 L6.59742093,2.47853194 L4.37043066,9.0152347 L8.88547013,9.0152347 L6.6597073,2.47853194 Z"></path></clipPath><clipPath id="i6"><path d="M5.67490643,0.00201100178 C8.44001913,0.00202300174 10.2627497,2.18169592 10.2627497,5.54848898 C10.2627497,8.924654 8.45064488,11.093779 5.71603757,11.093779 C4.30254293,11.1675123 2.97110825,10.4292339 2.2880853,9.19298513 L2.23634045,9.19298513 L2.23634045,14.5742236 L0,14.5742236 L0,0.115686632 L2.16469187,0.115686632 L2.16469187,1.92271276 L2.20582302,1.92271276 C2.91919,0.694214253 4.2520604,-0.043746246 5.67490643,0.00201100178 Z M5.08496694,1.90279282 C3.37627961,1.90279282 2.22696621,3.37935203 2.22696621,5.54848898 C2.22696621,7.73754586 3.37627961,9.2035571 5.08496694,9.2035571 C6.82421983,9.2035571 7.9641229,7.76801376 7.9641229,5.54848898 C7.9641229,3.34889612 6.8242078,1.90279282 5.08496694,1.90279282 Z"></path></clipPath><clipPath id="i7"><path d="M5.67487033,0.00201160406 C8.44006726,0.00201160406 10.2627497,2.18168452 10.2627497,5.54847758 C10.2627497,8.92464261 8.45064488,11.0937676 5.71603757,11.0937676 C4.30254293,11.1675009 2.97110825,10.4292225 2.2880853,9.19297373 L2.23634045,9.19297373 L2.23634045,14.5742122 L0,14.5742122 L0,0.115675235 L2.16464374,0.115675235 L2.16464374,1.92270136 L2.20577488,1.92270136 C2.91914706,0.694203599 4.25202257,-0.0437525583 5.67487033,0.00201160406 Z M5.08496694,1.90278143 C3.37627961,1.90278143 2.22696621,3.37934063 2.22696621,5.54847758 C2.22696621,7.73753446 3.37627961,9.2035457 5.08496694,9.2035457 C6.82421983,9.2035457 7.96413493,7.76800236 7.96413493,5.54847758 C7.96413493,3.34888473 6.8242078,1.90278143 5.08496694,1.90278143 Z"></path></clipPath><clipPath id="i8"><path d="M5.83119996,0 C8.98883951,0 11.1535193,1.76601026 11.2263833,4.3370979 L8.96886359,4.3370979 C8.83372528,2.84999074 7.60097028,1.95234565 5.79944306,1.95234565 C3.99791583,1.95234565 2.76517287,2.8605507 2.76517287,4.18241841 C2.76517287,5.23593098 3.55253703,5.85584897 5.47862495,6.33041143 L7.12502592,6.73353812 C10.1910289,7.45658377 11.4649151,8.68473177 11.4649151,10.8643807 C11.4649151,13.6522596 9.23797294,15.39835 5.69602555,15.39835 C2.38205637,15.39835 0.144548652,13.6932755 0,10.9979643 L2.28925257,10.9980723 C2.45495645,12.4758075 3.89454646,13.4460643 5.86175349,13.4460643 C7.7467223,13.4460643 9.10285869,12.4757595 9.10285869,11.1433318 C9.10285869,9.98669154 8.284941,9.29413779 6.34827547,8.81951534 L4.41160993,8.35427685 C1.66760432,7.693343 0.393718181,6.41365516 0.393718181,4.3370979 C0.393718181,1.76601026 2.64063624,0 5.83119996,0 Z"></path></clipPath><clipPath id="i9"><path d="M3.83103266,0 L3.83103266,2.57108764 L5.90284853,2.57108764 L5.90284853,4.3370979 L3.83103266,4.3370979 L3.83103266,10.3265304 C3.83103266,11.2569954 4.24586996,11.69059 5.15661552,11.69059 C5.40257378,11.6863132 5.64813406,11.6690892 5.89227092,11.6389902 L5.89227092,13.3944525 C5.48279862,13.4707477 5.06660451,13.5053015 4.65011762,13.4975801 C2.44434273,13.4975801 1.5841146,12.6714068 1.5841146,10.5643817 L1.5841146,4.3370979 L0,4.3370979 L0,2.57108764 L1.58409053,2.57108764 L1.58409053,0 L3.83103266,0 Z"></path></clipPath><clipPath id="i10"><path d="M5.16720516,0 C8.32604808,0 10.3355776,2.14799302 10.3355776,5.56638591 C10.3355776,8.99411477 8.33662569,11.1327718 5.16720516,11.1327718 C1.99890376,11.1327718 0,8.99410277 0,5.56638591 C0,2.14804102 2.01892782,0 5.16720516,0 Z M5.16719313,1.83749403 C3.35508829,1.83749403 2.27863886,3.2320215 2.27863886,5.56638591 C2.27863886,7.92067026 3.35508829,9.29411379 5.16719313,9.29411379 C6.97929796,9.29411379 8.05692669,7.92067026 8.05692669,5.56638591 C8.05692669,3.22147353 6.97929796,1.83749403 5.16719313,1.83749403 Z"></path></clipPath><clipPath id="i11"><path d="M4.80529201,0.00190735057 C5.06301032,0.00101003069 5.32001757,0.0289201583 5.57150095,0.0851150801 L5.57150095,2.1710443 C5.31121804,2.09173255 5.04194562,2.04673849 4.7705375,2.03698133 L4.56668806,2.03628474 C3.90922541,2.00968735 3.27294742,2.27097365 2.82492188,2.75153758 C2.37689634,3.23210151 2.16188389,3.88393162 2.23634045,4.53587662 L2.23634045,10.9799997 L0,10.9799997 L0,0.115594981 L2.13293497,0.115594981 L2.13293497,1.96478897 L2.18467983,1.96478897 C2.48212375,0.774378926 3.57593359,-0.0449026291 4.80529201,0.00190735057 Z"></path></clipPath><clipPath id="i12"><path d="M5.04263243,0 C8.05692669,0 9.95247312,2.06483329 9.95247312,5.35896658 L9.95247312,6.1230281 L2.25749567,6.1230281 L2.25749567,6.25778766 C2.18565145,7.06662298 2.4657285,7.86725776 3.02648429,8.45603643 C3.58724009,9.0448151 4.3746274,9.36498951 5.18836038,9.33511766 C6.27360916,9.43651686 7.29678641,8.81508455 7.70438779,7.80699463 L9.82790039,7.80700663 C9.52705821,9.77926022 7.60095825,11.1327718 5.13663959,11.1327718 C1.96721907,11.1327718 0,9.0151987 0,5.61794974 C0,2.21015282 1.97779668,0 5.04263243,0 Z M5.04263243,1.80702613 C4.3070634,1.80264882 3.60021538,2.09145476 3.07919859,2.60925141 C2.55818181,3.12704807 2.26616747,3.83093105 2.26805209,4.56444917 L7.71495337,4.56444917 C7.75553753,3.83764452 7.4902321,3.12691754 6.98295626,2.6034894 C6.47568043,2.08006125 5.7724284,1.79139067 5.04263243,1.80702613 Z"></path></clipPath><clipPath id="i13"><path d="M5.11468273,1.0375574 C5.76753913,1.76015879 6.07682698,2.75153712 5.95741686,3.73882212 C5.95741686,6.1372209 4.72068829,7.5158677 2.58717035,7.5158677 L0,7.5158677 L0,0.00853036875 L2.58717035,0.00853036875 C3.53421603,-0.0627023188 4.46182633,0.314955998 5.11468273,1.0375574 Z M2.4629057,1.0694373 L1.11246392,1.0694373 L1.11246392,6.45416812 L2.4629057,6.45416812 C3.13971344,6.49657119 3.79872251,6.21707611 4.2569508,5.69328819 C4.71517909,5.16950027 4.92384228,4.45718349 4.82500242,3.75412154 C4.91665121,3.05397724 4.70498305,2.34753846 4.24789091,1.82802203 C3.79079878,1.3085056 3.13611673,1.03027819 2.4629057,1.0694373 Z"></path></clipPath><clipPath id="i14"><path d="M3.91137431,0.403416558 C4.73836356,0.941305301 5.20293538,1.9240834 5.11024961,2.93957639 C5.20469884,3.95616061 4.74055106,4.94084485 3.91282855,5.47989155 C3.08510604,6.01893826 2.03724142,6.01893826 1.20951891,5.47989155 C0.381796397,4.94084485 -0.082351383,3.95616061 0.0120978436,2.93957639 C-0.0805879245,1.9240834 0.383983896,0.941305301 1.21097315,0.403416558 C2.0379624,-0.134472186 3.08438506,-0.134472186 3.91137431,0.403416558 Z M2.5629323,0.993341043 C1.63567697,0.993341043 1.11405833,1.71150814 1.11405833,2.93958897 C1.11405833,4.17749616 1.63571298,4.89012728 2.5629323,4.89012728 C3.48668249,4.89012728 4.01301867,4.17256411 4.01301867,2.93957639 C4.01301867,1.71150814 3.48665849,0.993341043 2.5629323,0.993341043 Z"></path></clipPath><clipPath id="i15"><path d="M1.08199796,0 L2.05028271,4.32309414 L2.13000079,4.32309414 L3.24130033,0 L4.26468312,0 L5.37598266,4.32309414 L5.46038227,4.32309414 L6.42397349,0 L7.49072646,0 L6.00664497,5.6654803 L4.90003896,5.6654803 L3.7828815,1.49285147 L3.69848189,1.49285147 L2.58600597,5.6654803 L1.48993941,5.6654803 L0,0 L1.08199796,0 Z"></path></clipPath><clipPath id="i16"><path d="M4.13842674,0.587769118 C4.5023917,0.997698301 4.66876299,1.55885696 4.59056572,2.11280214 L4.59056572,5.78038638 L3.52381275,5.78038638 L3.52381275,2.39357679 C3.52381275,1.48312259 3.14634927,1.03034265 2.35741519,1.03034265 C1.99605598,1.01270191 1.64536646,1.16134721 1.39728663,1.43730834 C1.14920679,1.71326948 1.02847849,2.08902388 1.06675297,2.46606033 L1.06675297,5.78044928 L0,5.78044928 L0,0.114968983 L1.02689993,0.114968983 L1.02689993,1.01498031 L1.10661801,1.01498031 C1.38383052,0.352333952 2.03159603,-0.0530133302 2.71964568,0.00560828896 C3.25240012,-0.0363748306 3.77446179,0.177839935 4.13842674,0.587769118 Z"></path></clipPath><clipPath id="i17"><path d="M1.13357283,0 L1.13357283,7.87711538 L0.0668198589,7.87711538 L0.0668198589,0 L1.13357283,0 Z"></path></clipPath><clipPath id="i18"><path d="M3.91172658,0.40342278 C4.7387772,0.941319819 5.2034223,1.92412279 5.11080772,2.93968221 C5.20513698,3.95630283 4.74090416,4.94095924 3.91314057,5.47998221 C3.08537698,6.01900517 2.03749849,6.01900517 1.2097349,5.47998221 C0.381971306,4.94095924 -0.0822615153,3.95630283 0.0120677514,2.93968221 C-0.0805468288,1.92412279 0.384098263,0.941319819 1.21114888,0.40342278 C2.03819951,-0.13447426 3.08467596,-0.13447426 3.91172658,0.40342278 Z M2.56290221,0.993446868 C1.63564688,0.993446868 1.11402824,1.71161396 1.11402824,2.93969479 C1.11402824,4.17760198 1.63568289,4.8902331 2.56290221,4.8902331 C3.4866404,4.8902331 4.01298858,4.17266993 4.01298858,2.93968221 C4.01298858,1.71161396 3.48662839,0.993446868 2.56290221,0.993446868 Z"></path></clipPath><clipPath id="i19"><path d="M2.41719474,0 C3.77233005,0 4.53664408,0.707095142 4.53664408,1.90384738 L4.53664408,5.77482841 L3.50974415,5.77482841 L3.50974415,4.9786418 L3.42534454,4.9786418 C3.07656877,5.56007825 2.45633192,5.89989522 1.80176542,5.86817252 C1.34289865,5.9181999 0.885254975,5.76243621 0.541972269,5.43938908 C0.198689563,5.11634195 0.00180789117,4.65616277 0,4.17261625 C0,3.15280136 0.724460995,2.56488068 2.01041767,2.48132519 L3.47457265,2.39286281 L3.47457265,1.90384738 C3.47457265,1.30547126 3.09710917,0.967587986 2.36796664,0.967587986 C1.77246383,0.967587986 1.35982884,1.19673966 1.24142211,1.5972927 L0.208664261,1.5972927 C0.317683925,0.624168735 1.19101762,0 2.41719474,0 Z M3.47457265,3.21485462 L2.15460884,3.303317 C1.41022133,3.35553132 1.07261089,3.62093105 1.07261089,4.12038934 C1.07261089,4.6302905 1.49462094,4.92701882 2.07493878,4.92701882 C2.41847444,4.96346802 2.76141501,4.85222659 3.02525412,4.61876005 C3.28909324,4.38529351 3.45123894,4.04959309 3.47457265,3.68850771 L3.47457265,3.21485462 Z"></path></clipPath><clipPath id="i20"><path d="M5.04774728,0 L5.04774728,7.87711538 L4.02554089,7.87711538 L4.02554089,6.98201093 L3.94114128,6.98201093 C3.59468895,7.61666907 2.94085948,7.99741777 2.24371399,7.97048465 C0.868652164,7.97054756 0,6.83643992 0,5.04194066 C0,3.25174435 0.878027231,2.11766188 2.24370199,2.11766188 C2.93329971,2.08435812 3.5791719,2.47165342 3.90127623,3.11162124 L3.98099431,3.11162124 L3.98099431,0 L5.04774728,0 Z M2.54618894,3.12211443 C1.64819918,3.12211443 1.10192448,3.85010789 1.10192448,5.04194066 C1.10196049,6.24359978 1.64237728,6.96668635 2.54618894,6.96668635 C3.44528306,6.96668635 4.00095684,6.2331695 4.00095684,5.04686012 C4.00095684,3.86608673 3.43944916,3.12211443 2.54618894,3.12211443 Z"></path></clipPath><clipPath id="i21"><path d="M3.91137431,0.403416558 C4.73836356,0.941305301 5.20293538,1.9240834 5.11024961,2.93957639 C5.20469884,3.95616061 4.74055106,4.94084485 3.91282855,5.47989155 C3.08510604,6.01893826 2.03724142,6.01893826 1.20951891,5.47989155 C0.381796397,4.94084485 -0.082351383,3.95616061 0.0120978436,2.93957639 C-0.0805879245,1.9240834 0.383983896,0.941305301 1.21097315,0.403416558 C2.0379624,-0.134472186 3.08438506,-0.134472186 3.91137431,0.403416558 Z M2.5629323,0.993341043 C1.63567697,0.993341043 1.11405833,1.71150814 1.11405833,2.93958897 C1.11405833,4.17749616 1.63571298,4.89012728 2.5629323,4.89012728 C3.48667049,4.89012728 4.01300667,4.17256411 4.01300667,2.93957639 C4.01300667,1.71150814 3.48665849,0.993341043 2.5629323,0.993341043 Z"></path></clipPath><clipPath id="i22"><path d="M4.13842674,0.587769118 C4.5023917,0.997698301 4.66876299,1.55885696 4.59056572,2.11280214 L4.59056572,5.78038638 L3.52381275,5.78038638 L3.52381275,2.39357679 C3.52381275,1.48312259 3.14634927,1.03034265 2.35741519,1.03034265 C1.99605598,1.01270191 1.64536646,1.16134721 1.39728663,1.43730834 C1.14920679,1.71326948 1.02847849,2.08902388 1.06675297,2.46606033 L1.06675297,5.78044928 L0,5.78044928 L0,0.114968983 L1.02689993,0.114968983 L1.02689993,1.01498031 L1.10661801,1.01498031 C1.38383052,0.352333952 2.03159603,-0.0530133302 2.71964568,0.00560828896 C3.25240012,-0.0363748306 3.77446179,0.177839935 4.13842674,0.587769118 Z"></path></clipPath><clipPath id="i23"><path d="M1.92601806,0 L1.92601806,1.43633419 L3.09710917,1.43633419 L3.09710917,2.37812956 L1.92601806,2.37812956 L1.92601806,5.29134896 C1.92601806,5.88480561 2.15930238,6.14466937 2.6903321,6.14466937 C2.82628325,6.14421333 2.96209794,6.13559749 3.09710917,6.11886417 L3.09710917,7.0502041 C2.90553791,7.08612594 2.71144176,7.10523678 2.51683934,7.10733789 C1.33051525,7.10733789 0.858088709,6.66992028 0.858088709,5.57762184 L0.858088709,2.37807923 L0,2.37807923 L0,1.43628386 L0.858088709,1.43628386 L0.858088709,0 L1.92601806,0 Z"></path></clipPath><clipPath id="i24"><path d="M1.0573779,0 L1.0573779,3.12210185 L1.14177751,3.12210185 C1.43230587,2.45365608 2.09140834,2.04779225 2.78991667,2.10720643 C3.31964589,2.0769942 3.83464042,2.29592499 4.19462732,2.70436697 C4.55461422,3.11280895 4.72209866,3.66822042 4.65146164,4.21931975 L4.65146164,7.87712796 L3.58364033,7.87712796 L3.58364033,4.49514977 C3.58364033,3.59021897 3.18150878,3.13191563 2.42779421,3.13191563 C2.05666756,3.10001289 1.6910281,3.24142851 1.42862615,3.51835634 C1.16622419,3.79528417 1.03381648,4.17948628 1.06680099,4.56824982 L1.06680099,7.87712796 L4.80157075e-05,7.87712796 L0,0 L1.0573779,0 Z"></path></clipPath><clipPath id="i25"><path d="M2.5152871,9.5184386e-05 C4.01929511,9.5184386e-05 4.92662393,1.07709419 4.92662393,2.85615564 L4.92662393,3.24630356 L1.1097473,3.24630356 L1.1097473,3.30896074 C1.07597067,3.72936799 1.21295794,4.14520486 1.48701967,4.45420412 C1.7610814,4.76320338 2.14678801,4.93669366 2.54928222,4.93200831 C3.07117918,4.99767843 3.57921016,4.72633804 3.8352509,4.24516981 L4.86215084,4.24520756 C4.56302142,5.31387678 3.57634889,6.00435589 2.51998064,5.88427171 C1.79922156,5.90421405 1.10653195,5.59107974 0.62569885,5.02795076 C0.144865752,4.46482178 -0.0755007535,3.70862795 0.0230678155,2.96000552 C-0.0728827064,2.20930258 0.146658117,1.45189706 0.624813671,0.884010609 C1.10296922,0.316124159 1.79268913,-0.00636334762 2.5152871,9.5184386e-05 Z M2.50939317,0.951716912 C2.13666164,0.946808655 1.77783542,1.09988132 1.51431126,1.37621164 C1.25078711,1.65254197 1.10490147,2.02870804 1.1097473,2.41937969 L3.83990843,2.41937969 C3.86710081,2.03488153 3.73811328,1.65622659 3.48473255,1.37672776 C3.23135183,1.09722893 2.87714247,0.942879765 2.50939317,0.951716912 Z"></path></clipPath></defs><g transform="translate(-935.0 -694.0)"><g clip-path="url(#i0)"><g transform="translate(935.0 694.0)"><g clip-path="url(#i1)"><polygon points="0,0 144,0 144,48 0,48 0,0" stroke="none" fill="#A6A6A6"></polygon></g><g transform="translate(1.050552935396567 1.0501525870040922)"><g clip-path="url(#i2)"><polygon points="0,0 141.898906,0 141.898906,45.9022508 0,45.9022508 0,0" stroke="none" fill="#000000"></polygon></g></g><g transform="translate(11.999472451713018 10.46444599055053)"><g transform="translate(0.0 6.3032634761775626)"><g clip-path="url(#i3)"><polygon points="8.8817842e-16,3.33066907e-16 21.3195454,3.33066907e-16 21.3195454,19.8278121 8.8817842e-16,19.8278121 8.8817842e-16,3.33066907e-16" stroke="none" fill="#FFFFFF"></polygon></g></g><g transform="translate(10.6126500700193 0.0)"><g clip-path="url(#i4)"><polygon points="-4.4408921e-16,0 5.26512342,0 5.26512342,6.02544174 -4.4408921e-16,6.02544174 -4.4408921e-16,0" stroke="none" fill="#FFFFFF"></polygon></g></g><g transform="translate(29.429227742087868 10.98088831211294)"><g transform="translate(0.0 0.24847119246851435)"><g clip-path="url(#i5)"><polygon points="0,0 13.2969838,0 13.2969838,14.9015516 0,14.9015516 0,0" stroke="none" fill="#FFFFFF"></polygon></g></g><g transform="translate(14.68599622259211 4.169907439482131)"><g clip-path="url(#i6)"><polygon points="0,2.22044605e-16 10.2627497,2.22044605e-16 10.2627497,14.5742236 0,14.5742236 0,2.22044605e-16" stroke="none" fill="#FFFFFF"></polygon></g></g><g transform="translate(26.67737308283097 4.169918837165142)"><g clip-path="url(#i7)"><polygon points="0,-2.22044605e-16 10.2627497,-2.22044605e-16 10.2627497,14.5742122 0,14.5742122 0,-2.22044605e-16" stroke="none" fill="#FFFFFF"></polygon></g></g><g transform="translate(42.5761844804376 0.0)"><g clip-path="url(#i8)"><polygon points="0,0 11.4649151,0 11.4649151,15.39835 0,15.39835 0,0" stroke="none" fill="#FFFFFF"></polygon></g></g><g transform="translate(55.036490067570014 1.7145064278540767)"><g clip-path="url(#i9)"><polygon points="0,0 5.90284853,0 5.90284853,13.4986382 0,13.4986382 0,0" stroke="none" fill="#FFFFFF"></polygon></g></g><g transform="translate(62.13922959498203 4.152010505965792)"><g clip-path="url(#i10)"><polygon points="0,0 10.3355776,0 10.3355776,11.1327718 0,11.1327718 0,0" stroke="none" fill="#FFFFFF"></polygon></g></g><g transform="translate(74.31858468460915 4.169999090729333)"><g clip-path="url(#i11)"><polygon points="0,1.33226763e-15 5.57150095,1.33226763e-15 5.57150095,10.9799997 0,10.9799997 0,1.33226763e-15" stroke="none" fill="#FFFFFF"></polygon></g></g><g transform="translate(80.37304564352524 4.15199850600493)"><g clip-path="url(#i12)"><polygon points="0,0 9.95247312,0 9.95247312,11.1327718 0,11.1327718 0,0" stroke="none" fill="#FFFFFF"></polygon></g></g></g></g><g transform="translate(42.99999999999999 10.0)"><g transform="translate(0.0 0.3613734958057644)"><g clip-path="url(#i13)"><polygon points="0,-1.73472348e-18 5.98259723,-1.73472348e-18 5.98259723,7.5158677 0,7.5158677 0,-1.73472348e-18" stroke="none" fill="#FFFFFF"></polygon></g></g><g transform="translate(7.201974113998688 2.102364268256906)"><g clip-path="url(#i14)"><polygon points="2.22044605e-16,0 5.12234746,0 5.12234746,5.88417659 2.22044605e-16,5.88417659 2.22044605e-16,0" stroke="none" fill="#FFFFFF"></polygon></g></g><g transform="translate(13.082407681124781 2.2116476571220574)"><g clip-path="url(#i15)"><polygon points="0,0 7.49072646,0 7.49072646,5.6654803 0,5.6654803 0,0" stroke="none" fill="#FFFFFF"></polygon></g></g><g transform="translate(21.82627208360981 2.096678674597797)"><g clip-path="url(#i16)"><polygon points="0,-1.11022302e-15 4.60951405,-1.11022302e-15 4.60951405,5.78044928 0,5.78044928 0,-1.11022302e-15" stroke="none" fill="#FFFFFF"></polygon></g></g><g transform="translate(28.04979800138955 0.0)"><g clip-path="url(#i17)"><polygon points="0.0668198589,0 1.13357283,0 1.13357283,7.87711538 0.0668198589,7.87711538 0.0668198589,0" stroke="none" fill="#FFFFFF"></polygon></g></g><g transform="translate(30.654208184999526 2.102258443264191)"><g clip-path="url(#i18)"><polygon points="2.22044605e-16,0 5.12287547,0 5.12287547,5.88424943 2.22044605e-16,5.88424943 2.22044605e-16,0" stroke="none" fill="#FFFFFF"></polygon></g></g><g transform="translate(36.88804327892899 2.102312127088453)"><g clip-path="url(#i19)"><polygon points="0,0 4.53664408,0 4.53664408,5.87736404 0,5.87736404 0,0" stroke="none" fill="#FFFFFF"></polygon></g></g><g transform="translate(42.82669800607542 0.0)"><g clip-path="url(#i20)"><polygon points="0,0 5.04774728,0 5.04774728,7.97182473 0,7.97182473 0,0" stroke="none" fill="#FFFFFF"></polygon></g></g><g transform="translate(52.27590326248352 2.1023642682571335)"><g clip-path="url(#i21)"><polygon points="2.22044605e-16,5.55111512e-17 5.12234746,5.55111512e-17 5.12234746,5.88417659 2.22044605e-16,5.88417659 2.22044605e-16,5.55111512e-17" stroke="none" fill="#FFFFFF"></polygon></g></g><g transform="translate(58.81747711010232 2.096678674597797)"><g clip-path="url(#i22)"><polygon points="0,-4.4408921e-16 4.60951405,-4.4408921e-16 4.60951405,5.78044928 0,5.78044928 0,-4.4408921e-16" stroke="none" fill="#FFFFFF"></polygon></g></g><g transform="translate(67.50978464665934 0.8011186655739952)"><g clip-path="url(#i23)"><polygon points="0,0 3.09710917,0 3.09710917,7.10733789 0,7.10733789 0,0" stroke="none" fill="#FFFFFF"></polygon></g></g><g transform="translate(72.06400247946169 0.0)"><g clip-path="url(#i24)"><polygon points="0,0 4.66732923,0 4.66732923,7.87712796 0,7.87712796 0,0" stroke="none" fill="#FFFFFF"></polygon></g></g><g transform="translate(78.07337607174173 2.1022043609382313)"><g clip-path="url(#i25)"><polygon points="1.4321877e-14,0 4.92662393,0 4.92662393,5.89779564 1.4321877e-14,5.89779564 1.4321877e-14,0" stroke="none" fill="#FFFFFF"></polygon></g></g></g></g></g></g></svg>