<?xml version="1.0" encoding="UTF-8"?>
<svg width="26px" height="26px" viewBox="0 0 26 26" version="1.1" xmlns="http://www.w3.org/2000/svg" xmlns:xlink="http://www.w3.org/1999/xlink">
    <title>iconmonstr-search-thin</title>
    <g id="UI-Design" stroke="none" stroke-width="1" fill="none" fill-rule="evenodd">
        <g id="4.0-Byrdi---FAQ---Desktop" transform="translate(-289.000000, -599.000000)" fill="#FFFFFF" stroke="#FFFFFF" stroke-width="0.5">
            <g id="iconmonstr-search-thin" transform="translate(290.000000, 600.000000)">
                <path d="M15.853,16.56 C14.17,18.077 11.942,19 9.5,19 C4.257,19 0,14.743 0,9.5 C0,4.257 4.257,0 9.5,0 C14.743,0 19,4.257 19,9.5 C19,11.942 18.077,14.17 16.56,15.853 L24,23.293 L23.293,24 L15.853,16.56 Z M9.5,1 C14.191,1 18,4.809 18,9.5 C18,14.191 14.191,18 9.5,18 C4.809,18 1,14.191 1,9.5 C1,4.809 4.809,1 9.5,1 Z" id="Shape"></path>
            </g>
        </g>
    </g>
</svg>