<?xml version="1.0" encoding="UTF-8"?>
<svg width="420px" height="154px" viewBox="0 0 420 154" version="1.1" xmlns="http://www.w3.org/2000/svg" xmlns:xlink="http://www.w3.org/1999/xlink">
    <title>Swoop-Logo-White@3x</title>
    <defs>
        <filter id="filter-1">
            <feColorMatrix in="SourceGraphic" type="matrix" values="0 0 0 0 1.000000 0 0 0 0 1.000000 0 0 0 0 1.000000 0 0 0 1.000000 0"></feColorMatrix>
        </filter>
    </defs>
    <g id="Symbols" stroke="none" stroke-width="1" fill="none" fill-rule="evenodd">
        <g filter="url(#filter-1)" id="Swoop-Logo-White">
            <g>
                <g id="Group" fill="#FFFFFF">
                    <path d="M179.360351,23.1150097 L175.755118,21.7641326 C152.170884,12.9083821 148.565651,11.8576998 147.514124,11.8576998 C142.857365,4.80311891 134.895808,0 125.732507,0 C115.51768,0 106.504597,6.00389864 102.298492,14.5594542 C101.697619,14.5594542 101.246965,14.5594542 100.646093,14.4093567 C100.495875,14.4093567 100.195439,14.4093567 100.045221,14.4093567 C99.7447847,14.4093567 99.2941306,14.4093567 98.9936945,14.4093567 C94.0364989,14.4093567 89.0793032,15.6101365 84.2723257,17.5614035 C78.8644759,19.962963 74.0574983,23.4152047 70.3020471,28.0682261 L0,96.0623782 L61.2889641,92.7602339 L60.2374378,154 L127.384906,78.5009747 C130.689703,75.0487329 133.093192,70.9961014 134.895808,66.4931774 C136.548207,62.4405458 137.299297,58.2378168 137.449515,54.0350877 C137.449515,54.0350877 137.449515,53.8849903 137.449515,53.8849903 C137.449515,53.4346979 137.449515,53.1345029 137.449515,52.6842105 C137.449515,52.3840156 137.449515,52.0838207 137.449515,51.7836257 C137.449515,51.6335283 137.449515,51.4834308 137.449515,51.3333333 C137.449515,50.7329435 137.449515,50.2826511 137.299297,49.6822612 C143.758673,46.5302144 148.715869,40.6764133 150.818921,33.7719298 C151.570012,33.6218324 152.321102,33.4717349 153.072192,33.17154 L179.360351,23.1150097 Z M126.333379,29.8693957 C126.934252,30.619883 127.535124,31.3703704 128.135996,32.1208577 C128.286214,32.2709552 128.436432,32.4210526 128.436432,32.5711501 C128.887086,33.3216374 129.487958,34.0721248 129.938613,34.9727096 C130.088831,35.2729045 130.239049,35.4230019 130.389267,35.7231969 C130.839921,36.4736842 131.140357,37.2241715 131.591011,37.9746589 C132.942974,41.1267057 133.9945,44.4288499 134.445154,47.8810916 C131.741229,48.9317739 128.887086,49.5321637 125.882725,49.5321637 C112.963973,49.5321637 102.598928,39.0253411 102.598928,26.1169591 C102.598928,23.1150097 103.1998,20.2631579 104.251326,17.5614035 C107.105469,17.8615984 109.809394,18.6120858 112.513319,19.662768 C117.921169,21.7641326 122.577928,25.0662768 126.333379,29.4191033 C126.183161,29.7192982 126.183161,29.7192982 126.333379,29.8693957 Z M134.595372,53.8849903 C134.595372,53.8849903 134.595372,53.8849903 134.595372,53.8849903 C134.144718,67.0935673 126.333379,79.251462 113.564845,84.9551657 C109.508958,86.7563353 105.152635,87.6569201 100.796311,87.8070175 L64.143107,89.7582846 L64.7439792,55.8362573 L64.7439792,55.6861598 C64.2933251,50.2826511 65.0444153,44.8791423 66.99725,39.625731 C70.4522651,30.7699805 77.0618593,23.8654971 85.6242881,20.1130604 C89.9806115,18.1617934 94.7875891,17.2612086 99.4443486,17.2612086 C99.8950028,17.2612086 100.495875,17.2612086 100.946529,17.2612086 C99.8950028,19.962963 99.4443486,22.9649123 99.4443486,26.1169591 C99.4443486,40.6764133 111.311575,52.5341131 125.732507,52.5341131 C128.887086,52.5341131 131.741229,51.9337232 134.595372,51.0331384 C134.595372,51.1832359 134.595372,51.3333333 134.595372,51.4834308 C134.595372,51.6335283 134.595372,51.7836257 134.595372,52.0838207 C134.595372,52.3840156 134.595372,52.5341131 134.595372,52.834308 C134.595372,53.1345029 134.595372,53.4346979 134.595372,53.8849903 Z M7.51090246,92.7602339 L64.8941973,37.2241715 C64.7439792,37.6744639 64.4435431,38.1247563 64.2933251,38.7251462 C62.1902724,44.2787524 61.2889641,50.1325536 61.8898363,55.9863548 L61.2889641,89.9083821 L7.51090246,92.7602339 Z M64.143107,92.6101365 L100.796311,90.6588694 C105.603289,90.5087719 110.260048,89.4580897 114.616372,87.5068226 C115.217244,87.2066277 115.667898,87.0565302 116.118552,86.7563353 L63.2417988,146.345029 L64.143107,92.6101365 Z M136.998861,46.6803119 C136.548207,43.5282651 135.646899,40.3762183 134.294936,37.374269 C134.144718,37.2241715 134.144718,36.9239766 133.9945,36.7738791 C133.694064,36.0233918 133.24341,35.2729045 132.792756,34.5224172 C132.642538,34.2222222 132.492319,33.9220273 132.191883,33.4717349 C131.741229,32.5711501 131.290575,31.8206628 130.689703,31.0701754 C130.539485,30.920078 130.389267,30.619883 130.239049,30.4697856 C129.638177,29.7192982 129.037304,28.8187135 128.436432,28.0682261 C128.286214,27.9181287 128.286214,27.7680312 128.135996,27.7680312 C127.384906,26.8674464 126.633816,26.1169591 125.882725,25.3664717 C125.882725,25.3664717 125.882725,25.3664717 125.882725,25.3664717 C122.42771,22.0643275 118.221605,19.2124756 113.564845,17.411306 C110.86092,16.3606238 108.156995,15.6101365 105.453071,15.1598441 C109.508958,7.95516569 117.01986,3.15204678 125.882725,3.15204678 C138.801478,3.15204678 149.166523,13.6588694 149.166523,26.5672515 C149.016305,35.122807 144.209327,42.6276803 136.998861,46.6803119 Z M151.570012,30.619883 C151.870448,29.2690058 152.020666,27.7680312 152.020666,26.2670565 C152.020666,22.3645224 151.119358,18.7621832 149.617177,15.3099415 C152.47132,16.2105263 158.63026,18.4619883 171.248576,23.1150097 L152.170884,30.4697856 C151.870448,30.619883 151.72023,30.619883 151.570012,30.619883 Z" id="Shape"></path>
                    <ellipse id="Oval" cx="96.5902057" cy="54.6354776" rx="10.5152635" ry="10.6569201"></ellipse>
                </g>
                <g id="SWOOP" transform="translate(161.297591, 53.588980)" fill="#1B1814" fill-rule="nonzero">
                    <path d="M19.1193905,44.7256472 C13.8314683,44.7256472 9.65835052,43.8098645 6.60003728,41.978299 C3.54172404,40.1467335 1.34171162,37.9311301 0,35.3314888 L5.38657751,31.2547786 C7.87269021,36.2965072 12.5292188,38.8173715 19.3561632,38.8173715 C22.0790485,38.8173715 24.3974472,38.3250152 26.3113594,37.3403026 C28.2252716,36.3555899 29.1822276,34.7800497 29.1822276,32.613682 C29.1822276,30.9987533 28.6396237,29.7383211 27.5544157,28.8323855 C26.4692078,27.9264499 24.8019338,27.1189856 22.5525938,26.4099925 C20.5005642,25.7797764 19.2180458,25.4055856 18.7050384,25.2874201 C15.3112973,24.3027075 12.8646467,23.5346316 11.3650866,22.9831926 C7.57672442,21.5652064 5.07088066,19.9305834 3.84755537,18.0793237 C2.62423007,16.228064 2.01256742,14.2980272 2.01256742,12.2892135 C2.01256742,10.6348963 2.53544033,8.85256646 3.58118615,6.94222397 C4.62693197,5.03188149 6.28434043,3.39725854 8.55341155,2.03835512 C10.8224827,0.679451708 13.6736198,0 17.1068231,0 C20.9346474,0 24.131078,0.512050562 26.6961149,1.53615169 C29.2611518,2.56025281 31.7472645,4.29334702 34.154453,6.73543432 L28.1759439,10.6939791 C25.7687554,7.58228718 22.256628,6.02644124 17.6395615,6.02644124 C15.2718352,6.02644124 13.4467127,6.38093778 12.1641943,7.08993087 C10.8816758,7.79892395 10.0332405,8.58669405 9.61888842,9.45324115 C9.2045363,10.3197883 8.99736024,11.0878641 8.99736024,11.7574687 C8.99736024,13.1754549 9.54982973,14.3177215 10.6547687,15.1842686 C11.7597077,16.0508157 13.3973851,16.8385858 15.5678009,17.5475789 C15.7651115,17.6263559 17.2844026,18.0793237 20.1256742,18.9064823 C21.901469,19.3791444 23.736457,19.9108892 25.6306381,20.5017168 C29.7741592,21.8803144 32.5463722,23.6331029 33.947277,25.7600821 C35.3481817,27.8870614 36.0486341,29.9352637 36.0486341,31.9046889 C36.0486341,34.0316682 35.5454923,36.0601762 34.5392086,37.9902129 C33.5329249,39.9202496 31.7768611,41.5253312 29.2710174,42.8054576 C26.7651736,44.085584 23.381298,44.7256472 19.1193905,44.7256472 Z" id="Path"></path>
                    <polygon id="Path" points="85.9407447 32.7318475 94.6421391 0.708993087 101.567739 0.708993087 89.1371753 44.0166541 82.8627004 44.0166541 73.6285675 11.934717 64.3944346 44.0166541 58.1199597 44.0166541 45.6302031 0.708993087 52.6149959 0.708993087 61.3163903 32.7318475 70.3729437 0.708993087 76.8841913 0.708993087"></polygon>
                    <path d="M133.287549,44.7256472 C128.828331,44.7256472 125.000507,43.7606288 121.804076,41.8305921 C118.607646,39.9005554 116.180726,37.2418313 114.523318,33.8544199 C112.865909,30.4670085 112.037205,26.6266292 112.037205,22.3332822 C112.037205,18.0399352 112.865909,14.2094031 114.523318,10.8416859 C116.180726,7.47396879 118.607646,4.82509184 121.804076,2.8950551 C125.000507,0.965018368 128.828331,0 133.287549,0 C137.746767,0 141.584457,0.965018368 144.800619,2.8950551 C148.016781,4.82509184 150.453566,7.47396879 152.110974,10.8416859 C153.768383,14.2094031 154.597087,18.0399352 154.597087,22.3332822 C154.597087,26.6266292 153.768383,30.4670085 152.110974,33.8544199 C150.453566,37.2418313 148.026646,39.9005554 144.830215,41.8305921 C141.633785,43.7606288 137.78623,44.7256472 133.287549,44.7256472 Z M133.287549,38.8764542 C136.562904,38.8764542 139.275924,38.1083784 141.426609,36.5722267 C143.577294,35.036075 145.165643,33.0174142 146.191658,30.5162441 C147.217673,28.015074 147.73068,25.2874201 147.73068,22.3332822 C147.73068,19.4185329 147.217673,16.7105732 146.191658,14.2094031 C145.165643,11.7082331 143.577294,9.68957218 141.426609,8.1534205 C139.275924,6.61726881 136.562904,5.84919296 133.287549,5.84919296 C130.051657,5.84919296 127.348502,6.61726881 125.178087,8.1534205 C123.007671,9.68957218 121.419321,11.7082331 120.413037,14.2094031 C119.406753,16.7105732 118.903612,19.4185329 118.903612,22.3332822 C118.903612,25.2874201 119.406753,28.015074 120.413037,30.5162441 C121.419321,33.0174142 123.007671,35.036075 125.178087,36.5722267 C127.348502,38.1083784 130.051657,38.8764542 133.287549,38.8764542 Z" id="Shape"></path>
                    <path d="M188.388658,44.7256472 C183.92944,44.7256472 180.101616,43.7606288 176.905185,41.8305921 C173.708754,39.9005554 171.281835,37.2418313 169.624426,33.8544199 C167.967018,30.4670085 167.138314,26.6266292 167.138314,22.3332822 C167.138314,18.0399352 167.967018,14.2094031 169.624426,10.8416859 C171.281835,7.47396879 173.708754,4.82509184 176.905185,2.8950551 C180.101616,0.965018368 183.92944,0 188.388658,0 C192.847876,0 196.685566,0.965018368 199.901727,2.8950551 C203.117889,4.82509184 205.554674,7.47396879 207.212083,10.8416859 C208.869491,14.2094031 209.698195,18.0399352 209.698195,22.3332822 C209.698195,26.6266292 208.869491,30.4670085 207.212083,33.8544199 C205.554674,37.2418313 203.127755,39.9005554 199.931324,41.8305921 C196.734893,43.7606288 192.887338,44.7256472 188.388658,44.7256472 Z M188.388658,38.8764542 C191.664013,38.8764542 194.377033,38.1083784 196.527717,36.5722267 C198.678402,35.036075 200.266752,33.0174142 201.292767,30.5162441 C202.318782,28.015074 202.831789,25.2874201 202.831789,22.3332822 C202.831789,19.4185329 202.318782,16.7105732 201.292767,14.2094031 C200.266752,11.7082331 198.678402,9.68957218 196.527717,8.1534205 C194.377033,6.61726881 191.664013,5.84919296 188.388658,5.84919296 C185.152765,5.84919296 182.449611,6.61726881 180.279195,8.1534205 C178.108779,9.68957218 176.520429,11.7082331 175.514146,14.2094031 C174.507862,16.7105732 174.00472,19.4185329 174.00472,22.3332822 C174.00472,25.2874201 174.507862,28.015074 175.514146,30.5162441 C176.520429,33.0174142 178.108779,35.036075 180.279195,36.5722267 C182.449611,38.1083784 185.152765,38.8764542 188.388658,38.8764542 Z" id="Shape"></path>
                    <path d="M244.969596,0.708993087 C248.99473,0.708993087 252.289816,1.72324709 254.854853,3.75175508 C257.41989,5.78026308 258.702409,8.96088484 258.702409,13.2936204 C258.702409,17.5869674 257.429756,20.7380478 254.88445,22.7468615 C252.339144,24.7556753 249.034193,25.7994706 244.969596,25.8782477 C244.061967,25.9176362 239.267321,25.9373304 230.585658,25.9373304 L230.585658,44.0166541 L224.133603,44.0166541 L224.133603,0.708993087 L230.585658,0.708993087 L244.969596,0.708993087 Z M241.29962,20.206303 C243.509498,20.206303 245.354351,20.0881375 246.83418,19.8518064 C248.314009,19.6154754 249.576796,18.9852593 250.622542,17.9611582 C251.668288,16.9370571 252.191161,15.3812111 252.191161,13.2936204 C252.191161,11.2060296 251.668288,9.65018368 250.622542,8.62608255 C249.576796,7.60198143 248.314009,6.97176535 246.83418,6.73543432 C245.354351,6.49910329 243.509498,6.38093778 241.29962,6.38093778 L230.585658,6.38093778 L230.585658,20.206303 L241.29962,20.206303 Z" id="Shape"></path>
                </g>
            </g>
        </g>
    </g>
</svg>