<?xml version="1.0" encoding="UTF-8"?><svg version="1.1" width="420px" height="154px" viewBox="0 0 420.0 154.0" xmlns="http://www.w3.org/2000/svg" xmlns:xlink="http://www.w3.org/1999/xlink"><defs><clipPath id="i0"><path d="M125.732507,0 C134.895808,0 142.857365,4.80311891 147.514124,11.8576998 C148.565651,11.8576998 152.170884,12.9083821 175.755118,21.7641326 L179.360351,23.1150097 L153.072192,33.17154 C152.321102,33.4717349 151.570012,33.6218324 150.818921,33.7719298 C148.715869,40.6764133 143.758673,46.5302144 137.299297,49.6822612 C137.449515,50.2826511 137.449515,50.7329435 137.449515,51.3333333 L137.449515,54.0350877 C137.299297,58.2378168 136.548207,62.4405458 134.895808,66.4931774 C133.093192,70.9961014 130.689703,75.0487329 127.384906,78.5009747 L60.2374378,154 L61.2889641,92.7602339 L0,96.0623782 L70.3020471,28.0682261 C74.0574983,23.4152047 78.8644759,19.962963 84.2723257,17.5614035 C89.0793032,15.6101365 94.0364989,14.4093567 98.9936945,14.4093567 L100.646093,14.4093567 C101.246965,14.5594542 101.697619,14.5594542 102.298492,14.5594542 C106.504597,6.00389864 115.51768,0 125.732507,0 Z M116.118552,86.7563353 C115.667898,87.0565302 115.217244,87.2066277 114.616372,87.5068226 C110.260048,89.4580897 105.603289,90.5087719 100.796311,90.6588694 L64.143107,92.6101365 L63.2417988,146.345029 Z M64.8941973,37.2241715 L7.51090246,92.7602339 L61.2889641,89.9083821 L61.8898363,55.9863548 C61.2889641,50.1325536 62.1902724,44.2787524 64.2933251,38.7251462 C64.4435431,38.1247563 64.7439792,37.6744639 64.8941973,37.2241715 Z M100.946529,17.2612086 L99.4443486,17.2612086 C94.7875891,17.2612086 89.9806115,18.1617934 85.6242881,20.1130604 C77.0618593,23.8654971 70.4522651,30.7699805 66.99725,39.625731 C65.0444153,44.8791423 64.2933251,50.2826511 64.7439792,55.6861598 L64.7439792,55.8362573 L64.143107,89.7582846 L100.796311,87.8070175 C105.152635,87.6569201 109.508958,86.7563353 113.564845,84.9551657 C126.333379,79.251462 134.144718,67.0935673 134.595372,53.8849903 L134.595372,51.0331384 C131.741229,51.9337232 128.887086,52.5341131 125.732507,52.5341131 C111.311575,52.5341131 99.4443486,40.6764133 99.4443486,26.1169591 C99.4443486,22.9649123 99.8950028,19.962963 100.946529,17.2612086 Z M104.251326,17.5614035 C103.1998,20.2631579 102.598928,23.1150097 102.598928,26.1169591 C102.598928,39.0253411 112.963973,49.5321637 125.882725,49.5321637 C128.887086,49.5321637 131.741229,48.9317739 134.445154,47.8810916 C133.9945,44.4288499 132.942974,41.1267057 131.591011,37.9746589 C131.140357,37.2241715 130.839921,36.4736842 130.389267,35.7231969 C130.239049,35.4230019 130.088831,35.2729045 129.938613,34.9727096 C129.487958,34.0721248 128.887086,33.3216374 128.436432,32.5711501 C128.436432,32.4210526 128.286214,32.2709552 128.135996,32.1208577 C127.535124,31.3703704 126.934252,30.619883 126.333379,29.8693957 C126.183161,29.7192982 126.183161,29.7192982 126.333379,29.4191033 C122.577928,25.0662768 117.921169,21.7641326 112.513319,19.662768 C109.809394,18.6120858 107.105469,17.8615984 104.251326,17.5614035 Z M125.882725,3.15204678 C117.01986,3.15204678 109.508958,7.95516569 105.453071,15.1598441 C108.156995,15.6101365 110.86092,16.3606238 113.564845,17.411306 C118.221605,19.2124756 122.42771,22.0643275 125.882725,25.3664717 L126.25827,25.7424103 C126.884179,26.3712909 127.510088,27.0175439 128.135996,27.7680312 C128.286214,27.7680312 128.286214,27.9181287 128.436432,28.0682261 C129.037304,28.8187135 129.638177,29.7192982 130.239049,30.4697856 C130.389267,30.619883 130.539485,30.920078 130.689703,31.0701754 C131.290575,31.8206628 131.741229,32.5711501 132.191883,33.4717349 C132.492319,33.9220273 132.642538,34.2222222 132.792756,34.5224172 C133.24341,35.2729045 133.694064,36.0233918 133.9945,36.7738791 C134.144718,36.9239766 134.144718,37.2241715 134.294936,37.374269 C135.646899,40.3762183 136.548207,43.5282651 136.998861,46.6803119 C144.209327,42.6276803 149.016305,35.122807 149.166523,26.5672515 C149.166523,13.6588694 138.801478,3.15204678 125.882725,3.15204678 Z M149.617177,15.3099415 C151.119358,18.7621832 152.020666,22.3645224 152.020666,26.2670565 C152.020666,27.7680312 151.870448,29.2690058 151.570012,30.619883 C151.72023,30.619883 151.870448,30.619883 152.170884,30.4697856 L171.248576,23.1150097 C158.63026,18.4619883 152.47132,16.2105263 149.617177,15.3099415 Z"></path></clipPath><clipPath id="i1"><path d="M10.5152635,0 C16.3226831,0 21.0305269,4.77126564 21.0305269,10.6569201 C21.0305269,16.5425745 16.3226831,21.3138402 10.5152635,21.3138402 C4.70784381,21.3138402 0,16.5425745 0,10.6569201 C0,4.77126564 4.70784381,0 10.5152635,0 Z"></path></clipPath><clipPath id="i2"><path d="M17.1068231,0 C20.9346474,0 24.131078,0.512050562 26.6961149,1.53615169 C29.2611518,2.56025281 31.7472645,4.29334702 34.154453,6.73543432 L28.1759439,10.6939791 C25.7687554,7.58228718 22.256628,6.02644124 17.6395615,6.02644124 C15.2718352,6.02644124 13.4467127,6.38093778 12.1641943,7.08993087 C10.8816758,7.79892395 10.0332405,8.58669405 9.61888842,9.45324115 C9.2045363,10.3197883 8.99736024,11.0878641 8.99736024,11.7574687 C8.99736024,13.1754549 9.54982973,14.3177215 10.6547687,15.1842686 C11.7597077,16.0508157 13.3973851,16.8385858 15.5678009,17.5475789 C15.7651115,17.6263559 17.2844026,18.0793237 20.1256742,18.9064823 C21.901469,19.3791444 23.736457,19.9108892 25.6306381,20.5017168 C29.7741592,21.8803144 32.5463722,23.6331029 33.947277,25.7600821 C35.3481817,27.8870614 36.0486341,29.9352637 36.0486341,31.9046889 C36.0486341,34.0316682 35.5454923,36.0601762 34.5392086,37.9902129 C33.5329249,39.9202496 31.7768611,41.5253312 29.2710174,42.8054576 C26.7651736,44.085584 23.381298,44.7256472 19.1193905,44.7256472 C13.8314683,44.7256472 9.65835052,43.8098645 6.60003728,41.978299 C3.54172404,40.1467335 1.34171162,37.9311301 0,35.3314888 L5.38657751,31.2547786 C7.87269021,36.2965072 12.5292188,38.8173715 19.3561632,38.8173715 C22.0790485,38.8173715 24.3974472,38.3250152 26.3113594,37.3403026 C28.2252716,36.3555899 29.1822276,34.7800497 29.1822276,32.613682 C29.1822276,30.9987533 28.6396237,29.7383211 27.5544157,28.8323855 C26.4692078,27.9264499 24.8019338,27.1189856 22.5525938,26.4099925 C20.5005642,25.7797764 19.2180458,25.4055856 18.7050384,25.2874201 C15.3112973,24.3027075 12.8646467,23.5346316 11.3650866,22.9831926 C7.57672442,21.5652064 5.07088066,19.9305834 3.84755537,18.0793237 C2.62423007,16.228064 2.01256742,14.2980272 2.01256742,12.2892135 C2.01256742,10.6348963 2.53544033,8.85256646 3.58118615,6.94222397 C4.62693197,5.03188149 6.28434043,3.39725854 8.55341155,2.03835512 C10.8224827,0.679451708 13.6736198,0 17.1068231,0 Z"></path></clipPath><clipPath id="i3"><path d="M6.98479282,0 L15.6861873,32.0228544 L24.7427407,0 L31.2539882,0 L40.3105416,32.0228544 L49.0119361,0 L55.9375357,0 L43.5069722,43.307661 L37.2324973,43.307661 L27.9983644,11.2257239 L18.7642316,43.307661 L12.4897567,43.307661 L0,0 L6.98479282,0 Z"></path></clipPath><clipPath id="i4"><path d="M21.2503443,0 C25.7095623,0 29.5472521,0.965018368 32.7634138,2.8950551 C35.9795754,4.82509184 38.4163605,7.47396879 40.073769,10.8416859 C41.7311774,14.2094031 42.5598817,18.0399352 42.5598817,22.3332822 C42.5598817,26.6266292 41.7311774,30.4670085 40.073769,33.8544199 C38.4163605,37.2418313 35.989441,39.9005554 32.7930104,41.8305921 C29.5965797,43.7606288 25.7490244,44.7256472 21.2503443,44.7256472 C16.7911262,44.7256472 12.9633019,43.7606288 9.76687132,41.8305921 C6.5704407,39.9005554 4.14352116,37.2418313 2.4861127,33.8544199 C0.828704233,30.4670085 0,26.6266292 0,22.3332822 C0,18.0399352 0.828704233,14.2094031 2.4861127,10.8416859 C4.14352116,7.47396879 6.5704407,4.82509184 9.76687132,2.8950551 C12.9633019,0.965018368 16.7911262,0 21.2503443,0 Z M21.2503443,5.84919296 C18.0144515,5.84919296 15.3112973,6.61726881 13.1408814,8.1534205 C10.9704656,9.68957218 9.38211578,11.7082331 8.37583207,14.2094031 C7.36954836,16.7105732 6.8664065,19.4185329 6.8664065,22.3332822 C6.8664065,25.2874201 7.36954836,28.015074 8.37583207,30.5162441 C9.38211578,33.0174142 10.9704656,35.036075 13.1408814,36.5722267 C15.3112973,38.1083784 18.0144515,38.8764542 21.2503443,38.8764542 C24.5256991,38.8764542 27.2387189,38.1083784 29.3894037,36.5722267 C31.5400885,35.036075 33.1284383,33.0174142 34.154453,30.5162441 C35.1804678,28.015074 35.6934752,25.2874201 35.6934752,22.3332822 C35.6934752,19.4185329 35.1804678,16.7105732 34.154453,14.2094031 C33.1284383,11.7082331 31.5400885,9.68957218 29.3894037,8.1534205 C27.2387189,6.61726881 24.5256991,5.84919296 21.2503443,5.84919296 Z"></path></clipPath><clipPath id="i5"><path d="M21.2503443,0 C25.7095623,0 29.5472521,0.965018368 32.7634138,2.8950551 C35.9795754,4.82509184 38.4163605,7.47396879 40.073769,10.8416859 C41.7311774,14.2094031 42.5598817,18.0399352 42.5598817,22.3332822 C42.5598817,26.6266292 41.7311774,30.4670085 40.073769,33.8544199 C38.4163605,37.2418313 35.989441,39.9005554 32.7930104,41.8305921 C29.5965797,43.7606288 25.7490244,44.7256472 21.2503443,44.7256472 C16.7911262,44.7256472 12.9633019,43.7606288 9.76687132,41.8305921 C6.5704407,39.9005554 4.14352116,37.2418313 2.4861127,33.8544199 C0.828704233,30.4670085 0,26.6266292 0,22.3332822 C0,18.0399352 0.828704233,14.2094031 2.4861127,10.8416859 C4.14352116,7.47396879 6.5704407,4.82509184 9.76687132,2.8950551 C12.9633019,0.965018368 16.7911262,0 21.2503443,0 Z M21.2503443,5.84919296 C18.0144515,5.84919296 15.3112973,6.61726881 13.1408814,8.1534205 C10.9704656,9.68957218 9.38211578,11.7082331 8.37583207,14.2094031 C7.36954836,16.7105732 6.8664065,19.4185329 6.8664065,22.3332822 C6.8664065,25.2874201 7.36954836,28.015074 8.37583207,30.5162441 C9.38211578,33.0174142 10.9704656,35.036075 13.1408814,36.5722267 C15.3112973,38.1083784 18.0144515,38.8764542 21.2503443,38.8764542 C24.5256991,38.8764542 27.2387189,38.1083784 29.3894037,36.5722267 C31.5400885,35.036075 33.1284383,33.0174142 34.154453,30.5162441 C35.1804678,28.015074 35.6934752,25.2874201 35.6934752,22.3332822 C35.6934752,19.4185329 35.1804678,16.7105732 34.154453,14.2094031 C33.1284383,11.7082331 31.5400885,9.68957218 29.3894037,8.1534205 C27.2387189,6.61726881 24.5256991,5.84919296 21.2503443,5.84919296 Z"></path></clipPath><clipPath id="i6"><path d="M20.8359921,0 C24.861127,0 28.1562129,1.014254 30.7212498,3.042762 C33.2862867,5.07126999 34.5688051,8.25189176 34.5688051,12.5846273 C34.5688051,16.8779743 33.2961522,20.0290547 30.7508464,22.0378684 C28.2055405,24.0466822 24.9005891,25.0904776 20.8359921,25.1692546 C20.0628272,25.2028077 16.4690418,25.2220697 10.0546361,25.2270406 L8.76365282,25.2278308 C8.61621124,25.2278983 8.46743666,25.2279591 8.31732909,25.2280131 L6.45205439,25.2283373 L6.45205439,43.307661 L0,43.307661 L0,0 L20.8359921,0 Z M17.1660163,5.67194469 L6.45205439,5.67194469 L6.45205439,19.4973099 L17.1660163,19.4973099 C19.3758942,19.4973099 21.2207477,19.3791444 22.7005767,19.1428133 C24.1804057,18.9064823 25.4431931,18.2762662 26.4889389,17.2521651 C27.5346847,16.228064 28.0575576,14.672218 28.0575576,12.5846273 C28.0575576,10.4970365 27.5346847,8.94119059 26.4889389,7.91708947 C25.4431931,6.89298834 24.1804057,6.26277226 22.7005767,6.02644124 C21.2207477,5.79011021 19.3758942,5.67194469 17.1660163,5.67194469 Z"></path></clipPath></defs><g clip-path="url(#i0)"><polygon points="0,0 179.360351,0 179.360351,154 0,154 0,0" stroke="none" fill="#FFFFFF"></polygon></g><g transform="translate(86.07494224587099 43.97855750487348)"><g clip-path="url(#i1)"><polygon points="0,0 21.0305269,0 21.0305269,21.3138402 0,21.3138402 0,0" stroke="none" fill="#FFFFFF"></polygon></g></g><g transform="translate(161.29759144830456 53.58897968042244)"><g clip-path="url(#i2)"><polygon points="0,0 36.0486341,0 36.0486341,44.7256472 0,44.7256472 0,0" stroke="none" fill="#FFFFFF"></polygon></g><g transform="translate(45.63020306925854 0.7089930865352407)"><g clip-path="url(#i3)"><polygon points="0,0 55.9375357,0 55.9375357,43.307661 0,43.307661 0,0" stroke="none" fill="#FFFFFF"></polygon></g></g><g transform="translate(112.03720512251648 0.0)"><g clip-path="url(#i4)"><polygon points="0,0 42.5598817,0 42.5598817,44.7256472 0,44.7256472 0,0" stroke="none" fill="#FFFFFF"></polygon></g></g><g transform="translate(167.1383137115459 0.0)"><g clip-path="url(#i5)"><polygon points="0,0 42.5598817,0 42.5598817,44.7256472 0,44.7256472 0,0" stroke="none" fill="#FFFFFF"></polygon></g></g><g transform="translate(224.1336034045302 0.7089930865352407)"><g clip-path="url(#i6)"><polygon points="0,0 34.5688051,0 34.5688051,43.307661 0,43.307661 0,0" stroke="none" fill="#FFFFFF"></polygon></g></g></g></svg>