<?xml version="1.0" standalone="no"?>
<!DOCTYPE svg PUBLIC "-//W3C//DTD SVG 20010904//EN"
 "http://www.w3.org/TR/2001/REC-SVG-20010904/DTD/svg10.dtd">
<svg version="1.0" xmlns="http://www.w3.org/2000/svg"
 width="1116.000000pt" height="1116.000000pt" viewBox="0 0 1116.000000 1116.000000"
 preserveAspectRatio="xMidYMid meet">
<metadata>
Created by potrace 1.14, written by Peter Selinger 2001-2017
</metadata>
<g transform="translate(0.000000,1116.000000) scale(0.100000,-0.100000)"
fill="#000000" stroke="none">
<path d="M7689 10366 c-2 -2 -33 -7 -69 -10 -78 -8 -232 -41 -260 -56 -11 -6
-20 -9 -20 -6 0 7 -110 -32 -125 -44 -6 -5 -20 -11 -31 -13 -25 -5 -98 -40
-102 -49 -2 -5 -12 -8 -23 -8 -10 0 -19 -4 -19 -10 0 -5 -6 -10 -13 -10 -17 0
-172 -103 -240 -160 -75 -63 -236 -230 -253 -262 -8 -16 -19 -28 -24 -28 -6 0
-10 -4 -10 -9 0 -5 -22 -42 -50 -82 -27 -40 -50 -79 -50 -86 0 -7 -4 -13 -10
-13 -5 0 -10 -6 -10 -12 -1 -38 -14 -41 -201 -44 -101 -1 -209 -6 -239 -9 -30
-3 -69 -7 -85 -8 -17 -2 -35 -6 -40 -9 -6 -3 -33 -8 -62 -12 -28 -3 -63 -10
-77 -16 -14 -5 -26 -7 -26 -4 0 4 -6 1 -13 -5 -8 -6 -16 -9 -18 -6 -3 2 -27
-3 -54 -11 -28 -8 -57 -17 -66 -19 -8 -2 -65 -22 -125 -45 -60 -24 -124 -48
-141 -54 -18 -6 -33 -14 -33 -18 0 -5 -5 -8 -11 -8 -12 0 -90 -38 -169 -83
-25 -14 -60 -33 -77 -42 -18 -10 -33 -21 -33 -26 0 -5 -6 -9 -14 -9 -8 0 -21
-6 -28 -13 -7 -7 -35 -28 -63 -47 -27 -18 -57 -40 -66 -49 -9 -9 -28 -24 -42
-34 -43 -31 -127 -109 -196 -180 -137 -143 -335 -339 -551 -547 -262 -253
-408 -394 -564 -545 -62 -60 -204 -198 -315 -305 -111 -107 -246 -238 -300
-290 -54 -52 -203 -196 -331 -320 -128 -124 -285 -276 -349 -337 -64 -62 -116
-113 -117 -113 0 0 -53 -51 -116 -112 -63 -62 -212 -206 -329 -319 -260 -251
-348 -336 -614 -594 -114 -110 -241 -233 -284 -273 -71 -68 -427 -413 -562
-545 -32 -31 -59 -59 -59 -61 0 -5 143 1 465 19 97 6 130 8 375 19 63 3 144 8
180 11 36 2 119 7 185 10 66 3 152 8 190 10 39 2 122 7 185 10 63 3 149 7 190
10 41 2 120 7 175 10 55 3 145 8 200 11 55 3 134 7 175 9 41 2 118 6 170 9 52
4 142 8 200 11 58 3 150 7 205 10 55 3 136 7 180 10 125 6 293 16 370 20 39 2
128 7 199 10 72 4 135 7 140 8 12 2 12 -245 1 -783 -3 -168 -8 -415 -10 -550
-2 -135 -7 -391 -10 -570 -4 -179 -8 -429 -10 -556 -1 -128 -6 -237 -9 -243
-4 -6 -2 -19 3 -29 6 -11 8 -22 4 -25 -3 -4 -7 -120 -9 -259 -8 -584 -12 -767
-18 -776 -14 -24 25 -3 46 23 13 16 44 51 69 77 26 27 44 48 42 48 -2 0 2 6 9
13 7 8 45 49 83 92 39 43 83 91 98 108 15 17 51 57 80 90 29 33 63 72 77 87
14 15 52 58 85 96 33 37 67 75 75 84 8 8 47 51 85 95 39 44 89 100 111 125 23
25 57 63 75 84 39 45 50 57 141 157 37 41 75 83 85 95 10 12 44 50 75 85 31
35 65 73 75 85 10 12 48 54 84 95 37 41 108 121 160 179 51 58 98 110 104 116
5 6 37 42 70 80 33 37 67 75 75 84 8 9 47 52 85 95 39 44 86 97 105 119 51 56
71 78 109 122 19 21 53 59 75 84 23 25 71 79 108 120 37 41 75 84 85 96 10 12
46 52 80 90 34 38 71 80 82 93 17 20 83 94 169 190 13 14 49 55 80 90 32 35
71 79 87 96 17 18 48 54 70 80 22 25 54 61 70 78 17 18 50 55 74 82 43 50 145
165 190 214 13 14 46 52 75 85 28 32 60 68 71 80 11 12 52 57 90 101 39 43 75
83 80 89 6 6 44 49 85 96 85 97 73 83 164 184 39 43 77 86 85 95 35 40 138
155 161 181 50 55 143 162 164 188 11 15 26 32 33 37 31 26 213 297 241 360 7
16 20 37 29 47 9 10 13 18 10 18 -4 0 7 27 24 60 16 33 30 62 29 65 0 3 7 20
17 38 9 17 17 35 18 39 0 3 3 10 8 14 4 4 7 13 7 20 0 7 5 25 12 41 6 15 12
30 13 33 1 3 10 32 20 65 10 33 20 65 21 70 1 6 11 48 22 95 21 85 36 167 50
277 4 32 7 146 7 254 l0 196 65 34 c36 19 67 36 70 39 14 14 70 50 79 50 5 0
12 7 15 16 3 8 10 13 14 10 5 -3 15 3 23 12 9 9 36 34 60 54 67 55 169 157
169 169 0 6 5 7 10 4 6 -3 10 -3 10 2 0 4 33 52 73 105 39 53 90 132 112 175
22 43 43 80 46 83 11 8 38 80 31 80 -4 0 -2 4 3 8 6 4 22 40 35 80 16 47 30
72 40 72 8 0 53 14 100 31 47 17 91 31 98 31 6 1 12 5 12 8 0 4 12 10 28 13
15 3 41 11 57 18 17 7 33 12 38 11 4 -1 7 2 7 6 0 5 6 9 13 9 12 0 119 40 185
69 18 8 36 14 41 14 5 0 26 8 47 17 22 9 41 17 44 18 3 1 18 7 33 13 16 7 33
12 38 12 5 0 28 8 52 19 54 24 148 59 167 63 8 2 17 6 20 9 3 3 43 20 90 36
47 17 157 59 245 93 88 34 166 62 173 63 6 0 12 4 12 9 0 4 3 7 8 6 12 -4 242
86 242 94 0 5 -8 8 -18 8 -10 0 -22 3 -26 8 -4 4 -11 7 -14 8 -4 0 -24 8 -46
17 -21 9 -41 17 -43 17 -3 0 -84 30 -181 66 -98 37 -181 67 -187 69 -5 1 -21
7 -35 12 -60 25 -276 105 -287 107 -7 1 -16 5 -19 9 -4 4 -14 7 -22 7 -8 0
-28 7 -45 14 -18 8 -84 33 -147 56 -63 23 -124 45 -135 50 -11 4 -33 13 -50
18 -16 6 -39 14 -50 18 -11 4 -23 6 -27 6 -5 -1 -8 3 -8 10 0 6 -3 9 -6 5 -3
-3 -43 8 -87 24 -45 16 -109 39 -142 50 -33 11 -67 23 -75 26 -8 3 -17 7 -20
8 -3 0 -43 14 -90 29 -47 16 -92 30 -100 31 -8 2 -15 4 -15 5 0 1 -20 7 -45
13 -38 11 -52 22 -105 92 -195 258 -459 452 -762 561 -51 18 -93 31 -93 28 0
-2 -16 2 -35 10 -19 8 -35 13 -35 11 0 -2 -14 0 -32 5 -17 5 -50 12 -72 16
-23 3 -52 8 -66 10 -35 7 -335 15 -341 10z m331 -190 c80 -13 96 -16 120 -22
14 -3 32 -7 40 -9 8 -1 22 -5 30 -8 8 -3 47 -15 85 -28 97 -32 283 -128 376
-195 69 -50 214 -184 262 -243 40 -49 127 -171 123 -171 -3 0 6 -17 20 -37 29
-43 94 -179 94 -197 0 -7 5 -17 12 -24 7 -7 9 -12 5 -12 -4 0 -1 -13 8 -30 8
-16 15 -33 15 -37 1 -5 5 -26 11 -48 14 -51 17 -64 33 -155 15 -85 19 -342 6
-410 -4 -25 -11 -63 -14 -85 -4 -22 -14 -65 -22 -95 -9 -30 -17 -62 -19 -70
-2 -8 -10 -31 -19 -51 -8 -20 -12 -39 -9 -43 4 -3 1 -6 -5 -6 -7 0 -12 -6 -12
-13 0 -13 -33 -89 -50 -117 -5 -8 -17 -28 -26 -45 -21 -38 -105 -166 -119
-181 -5 -6 -32 -37 -60 -69 -62 -73 -222 -213 -285 -250 -85 -50 -100 -56
-101 -38 0 10 -2 27 -4 38 -6 28 -35 158 -39 170 -1 6 -8 30 -15 55 -52 188
-151 412 -270 605 -56 92 -175 253 -231 315 -110 119 -210 217 -286 276 -20
16 -49 38 -63 50 -23 19 -173 119 -226 151 -53 32 -238 123 -300 148 -84 33
-229 84 -253 88 -9 2 -37 9 -62 16 -25 7 -52 14 -60 16 -8 1 -35 6 -60 11 -25
5 -49 9 -55 10 -45 5 -44 14 17 104 33 49 71 101 84 115 13 14 24 28 24 29 0
13 161 163 225 210 22 17 42 32 45 35 17 20 201 118 281 151 78 33 196 70 239
75 14 2 25 4 25 5 0 3 37 9 95 16 30 3 57 8 59 10 6 5 290 -3 331 -10z m1348
-782 c20 -8 38 -15 39 -15 5 1 28 -7 78 -25 28 -10 52 -19 55 -19 3 0 19 -5
35 -12 17 -6 68 -25 115 -41 79 -28 232 -83 425 -153 44 -16 87 -32 95 -36 8
-3 20 -7 25 -9 6 -1 64 -23 130 -49 66 -25 127 -48 135 -50 59 -16 139 -50
133 -56 -5 -5 -139 -58 -298 -119 -160 -61 -299 -114 -310 -119 -11 -5 -36
-14 -55 -21 -19 -7 -44 -16 -55 -20 -27 -11 -185 -72 -260 -100 -33 -13 -64
-27 -69 -31 -5 -4 -15 -5 -22 -2 -8 3 -14 0 -14 -6 0 -6 -18 -14 -40 -17 -22
-4 -43 -11 -46 -15 -3 -5 -12 -9 -20 -9 -12 0 -14 9 -9 40 3 22 8 59 11 82 12
86 5 302 -11 389 -3 13 -7 41 -11 63 -3 22 -7 43 -9 47 -2 3 -7 20 -10 38 -6
32 -46 158 -67 208 -6 16 -12 31 -12 35 -1 3 -4 10 -8 14 -11 11 -10 24 2 24
6 0 27 -7 48 -16z m-3095 -134 c-1 -14 -13 -65 -27 -114 -26 -90 -29 -106 -43
-211 -14 -114 -8 -395 12 -485 3 -14 7 -36 10 -50 21 -111 81 -285 130 -380 9
-16 14 -31 13 -32 -2 -2 7 -17 20 -35 12 -17 22 -34 22 -38 0 -7 75 -119 104
-156 12 -14 32 -41 46 -59 33 -44 199 -210 210 -210 5 0 13 -6 17 -13 4 -7 37
-34 73 -59 36 -26 70 -52 77 -58 7 -5 19 -10 28 -10 8 0 15 -4 15 -9 0 -7 198
-111 212 -111 3 0 23 -8 44 -17 22 -9 41 -17 44 -18 6 -2 89 -27 105 -31 189
-59 539 -75 723 -33 26 6 58 13 72 15 14 3 43 10 65 16 22 7 47 13 56 14 9 0
23 5 30 10 21 13 39 13 40 1 9 -115 -16 -414 -47 -547 -33 -144 -77 -286 -120
-385 -10 -22 -18 -42 -19 -45 -7 -29 -149 -291 -176 -324 -4 -6 -43 -58 -86
-116 -95 -128 -353 -390 -384 -390 -5 0 -9 -3 -9 -7 0 -5 -17 -19 -38 -33 -20
-14 -45 -32 -55 -41 -9 -9 -30 -22 -45 -30 -15 -8 -29 -16 -32 -19 -12 -14
-166 -100 -177 -100 -7 0 -13 -4 -13 -10 0 -5 -4 -10 -9 -10 -5 0 -42 -15 -83
-34 -87 -40 -188 -78 -188 -71 0 3 -10 -1 -22 -9 -13 -8 -27 -15 -33 -16 -5 0
-28 -6 -50 -12 -46 -13 -41 -12 -80 -21 -84 -20 -241 -47 -305 -52 -101 -8
-325 -21 -530 -30 -47 -2 -134 -7 -195 -10 -60 -4 -141 -8 -180 -10 -146 -8
-323 -17 -390 -20 -38 -2 -113 -6 -165 -9 -203 -11 -300 -16 -420 -22 -69 -3
-152 -7 -185 -9 -33 -2 -123 -7 -201 -10 l-140 -6 3 133 c2 73 3 148 3 166 -1
44 -1 21 6 362 3 168 7 392 7 497 1 106 4 193 7 193 6 0 12 626 8 960 -2 144
6 252 26 373 39 236 139 516 255 712 20 33 42 71 49 85 26 50 160 226 215 283
15 16 27 30 27 33 0 3 97 99 160 157 73 69 307 237 328 237 6 0 12 4 14 9 4
12 268 141 289 141 10 0 19 3 21 8 7 16 304 106 319 96 5 -3 9 -1 9 3 0 5 12
10 28 11 28 3 35 4 87 15 17 3 57 9 90 12 33 4 61 7 62 9 1 1 62 1 135 1 l133
0 -2 -25z m292 -6 c22 -4 45 -8 50 -9 6 -1 12 -3 15 -4 3 -2 16 -4 30 -6 34
-3 167 -41 260 -74 397 -142 790 -432 1015 -750 22 -31 48 -65 57 -75 10 -11
18 -24 18 -29 0 -4 14 -28 30 -53 34 -48 124 -222 153 -294 10 -25 22 -54 27
-65 32 -76 90 -271 105 -354 2 -14 9 -50 15 -80 14 -75 14 -78 -20 -90 -16 -5
-30 -7 -30 -4 0 3 -6 1 -13 -5 -7 -6 -24 -13 -37 -16 -14 -3 -50 -11 -80 -20
-155 -41 -483 -53 -589 -21 -9 2 -29 7 -46 9 -16 3 -45 10 -63 15 -18 5 -34
10 -37 11 -3 0 -10 2 -17 5 -7 2 -31 9 -53 16 -22 7 -59 20 -83 30 -23 10 -43
18 -45 18 -4 -2 -119 60 -162 87 -22 13 -50 30 -62 36 -13 6 -23 15 -23 20 0
4 -6 8 -14 8 -8 0 -16 3 -18 8 -1 4 -27 27 -57 52 -62 51 -133 121 -178 176
-17 22 -43 53 -57 70 -14 18 -26 36 -26 42 0 5 -7 15 -15 22 -51 43 -181 335
-210 476 -30 142 -35 191 -34 334 0 95 5 185 10 185 1 0 3 11 4 25 1 14 5 39
9 55 3 17 8 44 11 60 7 36 21 81 47 153 18 49 22 53 46 48 15 -2 45 -8 67 -12z
m-2546 -1265 c-23 -47 -99 -269 -105 -308 -2 -14 -7 -37 -11 -51 -10 -40 -13
-53 -15 -77 -1 -13 -5 -23 -8 -23 -3 0 -6 -10 -6 -22 -4 -63 -10 -108 -14
-108 -3 0 -5 -15 -6 -32 -3 -116 -13 -248 -18 -257 -4 -6 -3 -11 2 -11 11 0
12 -619 1 -641 -5 -9 -5 -19 -2 -23 10 -9 10 -88 0 -108 -5 -11 -4 -18 3 -18
6 0 9 -4 5 -9 -3 -5 -7 -144 -10 -308 -2 -164 -7 -444 -11 -623 -3 -179 -7
-385 -8 -457 -2 -73 -4 -135 -7 -137 -2 -2 -63 -7 -134 -11 -135 -6 -208 -10
-385 -20 -58 -3 -148 -8 -200 -11 -52 -2 -135 -7 -185 -9 -49 -2 -130 -7 -180
-10 -49 -3 -133 -7 -185 -10 -257 -12 -394 -20 -560 -29 -52 -3 -142 -8 -200
-11 -152 -7 -291 -14 -400 -21 -52 -3 -131 -7 -175 -9 -83 -4 -234 -12 -365
-20 -41 -2 -130 -7 -197 -10 -67 -3 -131 -8 -142 -10 -12 -2 -21 -1 -21 2 0 3
33 37 74 77 115 111 490 474 608 588 58 57 202 195 318 308 117 113 254 246
305 295 82 79 281 271 575 555 48 47 191 184 316 306 126 122 287 277 358 345
70 68 168 162 216 209 48 47 185 180 305 295 120 116 275 265 344 332 69 68
129 123 133 123 3 0 -3 -18 -13 -41z m3165 -3071 c-16 -18 -43 -48 -59 -67
-17 -19 -51 -57 -76 -85 -26 -28 -58 -64 -73 -81 -14 -16 -39 -44 -54 -61 -15
-16 -58 -65 -97 -108 -38 -43 -81 -92 -95 -109 -14 -16 -45 -51 -70 -77 -25
-27 -58 -63 -74 -82 -56 -65 -141 -162 -161 -182 -11 -12 -51 -57 -90 -101
-38 -44 -72 -82 -75 -85 -7 -7 -81 -90 -165 -185 -38 -43 -79 -89 -90 -101
-11 -12 -45 -50 -75 -85 -30 -35 -71 -80 -90 -100 -19 -21 -49 -55 -67 -76
-17 -21 -53 -61 -80 -90 -26 -28 -57 -62 -68 -76 -11 -13 -52 -60 -91 -103
-39 -44 -86 -97 -105 -118 -19 -22 -52 -59 -74 -83 -22 -24 -59 -65 -82 -91
-23 -26 -54 -61 -70 -78 -15 -17 -53 -60 -83 -94 -30 -34 -66 -75 -80 -90 -14
-15 -52 -58 -85 -96 -33 -37 -72 -81 -86 -96 -15 -16 -44 -49 -65 -74 -22 -25
-52 -60 -69 -78 -16 -17 -57 -62 -90 -100 -33 -38 -76 -86 -95 -107 -19 -21
-55 -61 -80 -89 -25 -28 -54 -61 -65 -74 -11 -12 -47 -53 -80 -90 -55 -63
-108 -122 -153 -171 -10 -11 -52 -58 -93 -105 -41 -46 -86 -98 -101 -115 -16
-16 -28 -33 -28 -37 0 -5 -4 -8 -10 -8 -9 0 -9 119 5 825 2 143 7 393 10 555
8 462 14 781 20 1085 3 154 7 410 10 569 3 160 7 292 10 294 6 7 35 9 186 16
74 4 163 9 199 11 137 8 279 16 380 21 194 9 265 14 298 18 17 2 32 -1 32 -6
0 -5 6 -6 13 -1 13 8 29 10 192 17 61 2 110 5 110 6 0 1 36 3 80 5 44 2 130 6
190 9 61 4 153 9 205 11 52 3 129 7 170 10 41 2 125 6 185 10 188 10 350 29
465 57 25 6 52 12 60 13 8 1 22 5 30 8 8 3 60 19 115 36 55 17 145 50 200 74
55 24 102 42 104 41 2 -2 -9 -18 -25 -36z"/>
<path d="M5935 7632 c-179 -20 -360 -130 -464 -282 -87 -127 -120 -239 -116
-392 2 -80 6 -108 19 -163 13 -48 82 -188 110 -222 108 -130 255 -223 395
-249 64 -12 213 -11 265 2 87 21 199 68 233 98 7 6 30 24 51 41 41 32 118 120
142 163 8 15 19 30 23 33 5 3 8 8 7 10 0 2 6 21 15 42 31 75 48 163 48 252 0
81 -4 114 -17 180 -7 36 -39 109 -75 170 -33 58 -181 215 -202 215 -6 0 -23 8
-37 18 -31 21 -118 56 -178 72 -44 11 -168 18 -219 12z"/>
</g>
</svg>
